  0
SECTION
  2
HEADER
  9
$ACADVER
  1
AC1009
  9
$EXTMIN
 10
0.0
 20
0.0
 30
0.0
  9
$EXTMAX
 10
1000.0
 20
1000.0
 30
0.0
  9
$FILLMODE
 70
 0
  9
$SPLFRAME
 70
 1
  0
ENDSEC
  0
SECTION
  2
TABLES
  0
TABLE
  2
LAYER
 70
1
  0
LAYER
  2
0
 70
     0
 62
     7
  6
CONTINUOUS
  0
ENDTAB
  0
ENDSEC
  0
SECTION
  2
ENTITIES
  0
LINE
  8
0
 62
     0
 10
0.0950846
 20
76.4575
 30
0.0
 11
276.32
 21
76.4575
 31
0.0
  0
LINE
  8
0
 62
     0
 10
276.32
 20
76.4575
 30
0.0
 11
276.32
 21
0.257693
 31
0.0
  0
LINE
  8
0
 62
     0
 10
276.32
 20
0.257693
 30
0.0
 11
0.0950846
 21
0.257693
 31
0.0
  0
LINE
  8
0
 62
     0
 10
0.0950846
 20
0.257693
 30
0.0
 11
0.0950846
 21
76.4575
 31
0.0
  0
LINE
  8
0
 62
     0
 10
181.212
 20
16.7831
 30
0.0
 11
181.212
 21
15.7827
 31
0.0
  0
LINE
  8
0
 62
     0
 10
181.212
 20
15.7827
 30
0.0
 11
180.413
 21
15.7827
 31
0.0
  0
LINE
  8
0
 62
     0
 10
180.413
 20
15.7827
 30
0.0
 11
180.413
 21
12.6848
 31
0.0
  0
LINE
  8
0
 62
     0
 10
180.413
 20
12.6848
 30
0.0
 11
181.212
 21
12.6848
 31
0.0
  0
LINE
  8
0
 62
     0
 10
181.212
 20
12.6848
 30
0.0
 11
181.212
 21
12.0826
 31
0.0
  0
LINE
  8
0
 62
     0
 10
181.212
 20
12.0826
 30
0.0
 11
179.688
 21
12.0826
 31
0.0
  0
LINE
  8
0
 62
     0
 10
179.688
 20
12.0826
 30
0.0
 11
179.688
 21
15.3128
 31
0.0
  0
LINE
  8
0
 62
     0
 10
179.688
 20
15.3128
 30
0.0
 11
177.963
 21
15.3128
 31
0.0
  0
LINE
  8
0
 62
     0
 10
177.963
 20
15.3128
 30
0.0
 11
177.963
 21
16.2347
 31
0.0
  0
LINE
  8
0
 62
     0
 10
177.963
 20
16.2347
 30
0.0
 11
174.662
 21
16.2347
 31
0.0
  0
LINE
  8
0
 62
     0
 10
174.662
 20
16.2347
 30
0.0
 11
174.662
 21
15.3128
 31
0.0
  0
LINE
  8
0
 62
     0
 10
174.662
 20
15.3128
 30
0.0
 11
172.937
 21
15.3128
 31
0.0
  0
LINE
  8
0
 62
     0
 10
172.937
 20
15.3128
 30
0.0
 11
172.937
 21
12.0826
 31
0.0
  0
LINE
  8
0
 62
     0
 10
172.937
 20
12.0826
 30
0.0
 11
172.113
 21
12.0826
 31
0.0
  0
LINE
  8
0
 62
     0
 10
172.113
 20
12.0826
 30
0.0
 11
172.113
 21
9.28384
 31
0.0
  0
LINE
  8
0
 62
     0
 10
172.113
 20
9.28384
 30
0.0
 11
172.937
 21
9.28384
 31
0.0
  0
LINE
  8
0
 62
     0
 10
172.937
 20
9.28384
 30
0.0
 11
172.937
 21
3.01377
 31
0.0
  0
LINE
  8
0
 62
     0
 10
172.937
 20
3.01377
 30
0.0
 11
174.662
 21
3.01377
 31
0.0
  0
LINE
  8
0
 62
     0
 10
174.662
 20
3.01377
 30
0.0
 11
174.662
 21
2.03261
 31
0.0
  0
LINE
  8
0
 62
     0
 10
174.662
 20
2.03261
 30
0.0
 11
177.963
 21
2.03261
 31
0.0
  0
LINE
  8
0
 62
     0
 10
177.963
 20
2.03261
 30
0.0
 11
177.963
 21
3.01377
 31
0.0
  0
LINE
  8
0
 62
     0
 10
177.963
 20
3.01377
 30
0.0
 11
179.688
 21
3.01377
 31
0.0
  0
LINE
  8
0
 62
     0
 10
179.688
 20
3.01377
 30
0.0
 11
179.688
 21
7.48273
 31
0.0
  0
LINE
  8
0
 62
     0
 10
179.688
 20
7.48273
 30
0.0
 11
181.212
 21
7.48273
 31
0.0
  0
LINE
  8
0
 62
     0
 10
181.212
 20
7.48273
 30
0.0
 11
181.212
 21
6.88329
 31
0.0
  0
LINE
  8
0
 62
     0
 10
181.212
 20
6.88329
 30
0.0
 11
180.413
 21
6.88329
 31
0.0
  0
LINE
  8
0
 62
     0
 10
180.413
 20
6.88329
 30
0.0
 11
180.413
 21
3.78273
 31
0.0
  0
LINE
  8
0
 62
     0
 10
180.413
 20
3.78273
 30
0.0
 11
181.212
 21
3.78273
 31
0.0
  0
LINE
  8
0
 62
     0
 10
181.212
 20
3.78273
 30
0.0
 11
181.212
 21
2.78364
 31
0.0
  0
LINE
  8
0
 62
     0
 10
181.212
 20
2.78364
 30
0.0
 11
195.213
 21
2.78364
 31
0.0
  0
LINE
  8
0
 62
     0
 10
195.213
 20
2.78364
 30
0.0
 11
195.213
 21
3.78273
 31
0.0
  0
LINE
  8
0
 62
     0
 10
195.213
 20
3.78273
 30
0.0
 11
196.012
 21
3.78273
 31
0.0
  0
LINE
  8
0
 62
     0
 10
196.012
 20
3.78273
 30
0.0
 11
196.012
 21
6.88329
 31
0.0
  0
LINE
  8
0
 62
     0
 10
196.012
 20
6.88329
 30
0.0
 11
195.213
 21
6.88329
 31
0.0
  0
LINE
  8
0
 62
     0
 10
195.213
 20
6.88329
 30
0.0
 11
195.213
 21
7.48273
 31
0.0
  0
LINE
  8
0
 62
     0
 10
195.213
 20
7.48273
 30
0.0
 11
196.737
 21
7.48273
 31
0.0
  0
LINE
  8
0
 62
     0
 10
196.737
 20
7.48273
 30
0.0
 11
196.737
 21
3.01377
 31
0.0
  0
LINE
  8
0
 62
     0
 10
196.737
 20
3.01377
 30
0.0
 11
198.462
 21
3.01377
 31
0.0
  0
LINE
  8
0
 62
     0
 10
198.462
 20
3.01377
 30
0.0
 11
198.462
 21
2.03261
 31
0.0
  0
LINE
  8
0
 62
     0
 10
198.462
 20
2.03261
 30
0.0
 11
201.763
 21
2.03261
 31
0.0
  0
LINE
  8
0
 62
     0
 10
201.763
 20
2.03261
 30
0.0
 11
201.763
 21
3.01377
 31
0.0
  0
LINE
  8
0
 62
     0
 10
201.763
 20
3.01377
 30
0.0
 11
203.488
 21
3.01377
 31
0.0
  0
LINE
  8
0
 62
     0
 10
203.488
 20
3.01377
 30
0.0
 11
203.488
 21
9.28384
 31
0.0
  0
LINE
  8
0
 62
     0
 10
203.488
 20
9.28384
 30
0.0
 11
204.312
 21
9.28384
 31
0.0
  0
LINE
  8
0
 62
     0
 10
204.312
 20
9.28384
 30
0.0
 11
204.312
 21
12.0826
 31
0.0
  0
LINE
  8
0
 62
     0
 10
204.312
 20
12.0826
 30
0.0
 11
203.488
 21
12.0826
 31
0.0
  0
LINE
  8
0
 62
     0
 10
203.488
 20
12.0826
 30
0.0
 11
203.488
 21
15.3128
 31
0.0
  0
LINE
  8
0
 62
     0
 10
203.488
 20
15.3128
 30
0.0
 11
201.763
 21
15.3128
 31
0.0
  0
LINE
  8
0
 62
     0
 10
201.763
 20
15.3128
 30
0.0
 11
201.763
 21
16.2347
 31
0.0
  0
LINE
  8
0
 62
     0
 10
201.763
 20
16.2347
 30
0.0
 11
198.462
 21
16.2347
 31
0.0
  0
LINE
  8
0
 62
     0
 10
198.462
 20
16.2347
 30
0.0
 11
198.462
 21
15.3128
 31
0.0
  0
LINE
  8
0
 62
     0
 10
198.462
 20
15.3128
 30
0.0
 11
196.737
 21
15.3128
 31
0.0
  0
LINE
  8
0
 62
     0
 10
196.737
 20
15.3128
 30
0.0
 11
196.737
 21
12.0826
 31
0.0
  0
LINE
  8
0
 62
     0
 10
196.737
 20
12.0826
 30
0.0
 11
195.213
 21
12.0826
 31
0.0
  0
LINE
  8
0
 62
     0
 10
195.213
 20
12.0826
 30
0.0
 11
195.213
 21
12.6848
 31
0.0
  0
LINE
  8
0
 62
     0
 10
195.213
 20
12.6848
 30
0.0
 11
196.012
 21
12.6848
 31
0.0
  0
LINE
  8
0
 62
     0
 10
196.012
 20
12.6848
 30
0.0
 11
196.012
 21
15.7827
 31
0.0
  0
LINE
  8
0
 62
     0
 10
196.012
 20
15.7827
 30
0.0
 11
195.213
 21
15.7827
 31
0.0
  0
LINE
  8
0
 62
     0
 10
195.213
 20
15.7827
 30
0.0
 11
195.213
 21
16.7831
 31
0.0
  0
LINE
  8
0
 62
     0
 10
195.213
 20
16.7831
 30
0.0
 11
181.212
 21
16.7831
 31
0.0
  0
LINE
  8
0
 62
     0
 10
85.9621
 20
16.7831
 30
0.0
 11
85.9621
 21
15.7827
 31
0.0
  0
LINE
  8
0
 62
     0
 10
85.9621
 20
15.7827
 30
0.0
 11
85.1627
 21
15.7827
 31
0.0
  0
LINE
  8
0
 62
     0
 10
85.1627
 20
15.7827
 30
0.0
 11
85.1627
 21
12.6848
 31
0.0
  0
LINE
  8
0
 62
     0
 10
85.1627
 20
12.6848
 30
0.0
 11
85.9621
 21
12.6848
 31
0.0
  0
LINE
  8
0
 62
     0
 10
85.9621
 20
12.6848
 30
0.0
 11
85.9621
 21
12.0826
 31
0.0
  0
LINE
  8
0
 62
     0
 10
85.9621
 20
12.0826
 30
0.0
 11
84.4381
 21
12.0826
 31
0.0
  0
LINE
  8
0
 62
     0
 10
84.4381
 20
12.0826
 30
0.0
 11
84.4381
 21
15.3128
 31
0.0
  0
LINE
  8
0
 62
     0
 10
84.4381
 20
15.3128
 30
0.0
 11
82.7126
 21
15.3128
 31
0.0
  0
LINE
  8
0
 62
     0
 10
82.7126
 20
15.3128
 30
0.0
 11
82.7126
 21
16.2347
 31
0.0
  0
LINE
  8
0
 62
     0
 10
82.7126
 20
16.2347
 30
0.0
 11
79.412
 21
16.2347
 31
0.0
  0
LINE
  8
0
 62
     0
 10
79.412
 20
16.2347
 30
0.0
 11
79.412
 21
15.3128
 31
0.0
  0
LINE
  8
0
 62
     0
 10
79.412
 20
15.3128
 30
0.0
 11
77.687
 21
15.3128
 31
0.0
  0
LINE
  8
0
 62
     0
 10
77.687
 20
15.3128
 30
0.0
 11
77.687
 21
12.0826
 31
0.0
  0
LINE
  8
0
 62
     0
 10
77.687
 20
12.0826
 30
0.0
 11
76.8629
 21
12.0826
 31
0.0
  0
LINE
  8
0
 62
     0
 10
76.8629
 20
12.0826
 30
0.0
 11
76.8629
 21
9.28384
 31
0.0
  0
LINE
  8
0
 62
     0
 10
76.8629
 20
9.28384
 30
0.0
 11
77.687
 21
9.28384
 31
0.0
  0
LINE
  8
0
 62
     0
 10
77.687
 20
9.28384
 30
0.0
 11
77.687
 21
3.01377
 31
0.0
  0
LINE
  8
0
 62
     0
 10
77.687
 20
3.01377
 30
0.0
 11
79.412
 21
3.01377
 31
0.0
  0
LINE
  8
0
 62
     0
 10
79.412
 20
3.01377
 30
0.0
 11
79.412
 21
2.03261
 31
0.0
  0
LINE
  8
0
 62
     0
 10
79.412
 20
2.03261
 30
0.0
 11
82.7126
 21
2.03261
 31
0.0
  0
LINE
  8
0
 62
     0
 10
82.7126
 20
2.03261
 30
0.0
 11
82.7126
 21
3.01377
 31
0.0
  0
LINE
  8
0
 62
     0
 10
82.7126
 20
3.01377
 30
0.0
 11
84.4381
 21
3.01377
 31
0.0
  0
LINE
  8
0
 62
     0
 10
84.4381
 20
3.01377
 30
0.0
 11
84.4381
 21
7.48273
 31
0.0
  0
LINE
  8
0
 62
     0
 10
84.4381
 20
7.48273
 30
0.0
 11
85.9621
 21
7.48273
 31
0.0
  0
LINE
  8
0
 62
     0
 10
85.9621
 20
7.48273
 30
0.0
 11
85.9621
 21
6.88329
 31
0.0
  0
LINE
  8
0
 62
     0
 10
85.9621
 20
6.88329
 30
0.0
 11
85.1627
 21
6.88329
 31
0.0
  0
LINE
  8
0
 62
     0
 10
85.1627
 20
6.88329
 30
0.0
 11
85.1627
 21
3.78273
 31
0.0
  0
LINE
  8
0
 62
     0
 10
85.1627
 20
3.78273
 30
0.0
 11
85.9621
 21
3.78273
 31
0.0
  0
LINE
  8
0
 62
     0
 10
85.9621
 20
3.78273
 30
0.0
 11
85.9621
 21
2.78364
 31
0.0
  0
LINE
  8
0
 62
     0
 10
85.9621
 20
2.78364
 30
0.0
 11
99.9628
 21
2.78364
 31
0.0
  0
LINE
  8
0
 62
     0
 10
99.9628
 20
2.78364
 30
0.0
 11
99.9628
 21
3.78273
 31
0.0
  0
LINE
  8
0
 62
     0
 10
99.9628
 20
3.78273
 30
0.0
 11
100.762
 21
3.78273
 31
0.0
  0
LINE
  8
0
 62
     0
 10
100.762
 20
3.78273
 30
0.0
 11
100.762
 21
6.88329
 31
0.0
  0
LINE
  8
0
 62
     0
 10
100.762
 20
6.88329
 30
0.0
 11
99.9628
 21
6.88329
 31
0.0
  0
LINE
  8
0
 62
     0
 10
99.9628
 20
6.88329
 30
0.0
 11
99.9628
 21
7.48273
 31
0.0
  0
LINE
  8
0
 62
     0
 10
99.9628
 20
7.48273
 30
0.0
 11
101.487
 21
7.48273
 31
0.0
  0
LINE
  8
0
 62
     0
 10
101.487
 20
7.48273
 30
0.0
 11
101.487
 21
3.01377
 31
0.0
  0
LINE
  8
0
 62
     0
 10
101.487
 20
3.01377
 30
0.0
 11
103.212
 21
3.01377
 31
0.0
  0
LINE
  8
0
 62
     0
 10
103.212
 20
3.01377
 30
0.0
 11
103.212
 21
2.03261
 31
0.0
  0
LINE
  8
0
 62
     0
 10
103.212
 20
2.03261
 30
0.0
 11
106.513
 21
2.03261
 31
0.0
  0
LINE
  8
0
 62
     0
 10
106.513
 20
2.03261
 30
0.0
 11
106.513
 21
3.01377
 31
0.0
  0
LINE
  8
0
 62
     0
 10
106.513
 20
3.01377
 30
0.0
 11
108.238
 21
3.01377
 31
0.0
  0
LINE
  8
0
 62
     0
 10
108.238
 20
3.01377
 30
0.0
 11
108.238
 21
9.28384
 31
0.0
  0
LINE
  8
0
 62
     0
 10
108.238
 20
9.28384
 30
0.0
 11
109.062
 21
9.28384
 31
0.0
  0
LINE
  8
0
 62
     0
 10
109.062
 20
9.28384
 30
0.0
 11
109.062
 21
12.0826
 31
0.0
  0
LINE
  8
0
 62
     0
 10
109.062
 20
12.0826
 30
0.0
 11
108.238
 21
12.0826
 31
0.0
  0
LINE
  8
0
 62
     0
 10
108.238
 20
12.0826
 30
0.0
 11
108.238
 21
15.3128
 31
0.0
  0
LINE
  8
0
 62
     0
 10
108.238
 20
15.3128
 30
0.0
 11
106.513
 21
15.3128
 31
0.0
  0
LINE
  8
0
 62
     0
 10
106.513
 20
15.3128
 30
0.0
 11
106.513
 21
16.2347
 31
0.0
  0
LINE
  8
0
 62
     0
 10
106.513
 20
16.2347
 30
0.0
 11
103.212
 21
16.2347
 31
0.0
  0
LINE
  8
0
 62
     0
 10
103.212
 20
16.2347
 30
0.0
 11
103.212
 21
15.3128
 31
0.0
  0
LINE
  8
0
 62
     0
 10
103.212
 20
15.3128
 30
0.0
 11
101.487
 21
15.3128
 31
0.0
  0
LINE
  8
0
 62
     0
 10
101.487
 20
15.3128
 30
0.0
 11
101.487
 21
12.0826
 31
0.0
  0
LINE
  8
0
 62
     0
 10
101.487
 20
12.0826
 30
0.0
 11
99.9628
 21
12.0826
 31
0.0
  0
LINE
  8
0
 62
     0
 10
99.9628
 20
12.0826
 30
0.0
 11
99.9628
 21
12.6848
 31
0.0
  0
LINE
  8
0
 62
     0
 10
99.9628
 20
12.6848
 30
0.0
 11
100.762
 21
12.6848
 31
0.0
  0
LINE
  8
0
 62
     0
 10
100.762
 20
12.6848
 30
0.0
 11
100.762
 21
15.7827
 31
0.0
  0
LINE
  8
0
 62
     0
 10
100.762
 20
15.7827
 30
0.0
 11
99.9628
 21
15.7827
 31
0.0
  0
LINE
  8
0
 62
     0
 10
99.9628
 20
15.7827
 30
0.0
 11
99.9628
 21
16.7831
 31
0.0
  0
LINE
  8
0
 62
     0
 10
99.9628
 20
16.7831
 30
0.0
 11
85.9621
 21
16.7831
 31
0.0
  0
LINE
  8
0
 62
     0
 10
238.362
 20
16.7831
 30
0.0
 11
238.362
 21
15.7827
 31
0.0
  0
LINE
  8
0
 62
     0
 10
238.362
 20
15.7827
 30
0.0
 11
237.563
 21
15.7827
 31
0.0
  0
LINE
  8
0
 62
     0
 10
237.563
 20
15.7827
 30
0.0
 11
237.563
 21
12.6848
 31
0.0
  0
LINE
  8
0
 62
     0
 10
237.563
 20
12.6848
 30
0.0
 11
238.362
 21
12.6848
 31
0.0
  0
LINE
  8
0
 62
     0
 10
238.362
 20
12.6848
 30
0.0
 11
238.362
 21
6.88329
 31
0.0
  0
LINE
  8
0
 62
     0
 10
238.362
 20
6.88329
 30
0.0
 11
237.563
 21
6.88329
 31
0.0
  0
LINE
  8
0
 62
     0
 10
237.563
 20
6.88329
 30
0.0
 11
237.563
 21
3.78273
 31
0.0
  0
LINE
  8
0
 62
     0
 10
237.563
 20
3.78273
 30
0.0
 11
238.362
 21
3.78273
 31
0.0
  0
LINE
  8
0
 62
     0
 10
238.362
 20
3.78273
 30
0.0
 11
238.362
 21
2.78364
 31
0.0
  0
LINE
  8
0
 62
     0
 10
238.362
 20
2.78364
 30
0.0
 11
252.361
 21
2.78364
 31
0.0
  0
LINE
  8
0
 62
     0
 10
252.361
 20
2.78364
 30
0.0
 11
252.361
 21
3.78273
 31
0.0
  0
LINE
  8
0
 62
     0
 10
252.361
 20
3.78273
 30
0.0
 11
253.162
 21
3.78273
 31
0.0
  0
LINE
  8
0
 62
     0
 10
253.162
 20
3.78273
 30
0.0
 11
253.162
 21
6.88329
 31
0.0
  0
LINE
  8
0
 62
     0
 10
253.162
 20
6.88329
 30
0.0
 11
252.361
 21
6.88329
 31
0.0
  0
LINE
  8
0
 62
     0
 10
252.361
 20
6.88329
 30
0.0
 11
252.361
 21
12.6848
 31
0.0
  0
LINE
  8
0
 62
     0
 10
252.361
 20
12.6848
 30
0.0
 11
253.162
 21
12.6848
 31
0.0
  0
LINE
  8
0
 62
     0
 10
253.162
 20
12.6848
 30
0.0
 11
253.162
 21
15.7827
 31
0.0
  0
LINE
  8
0
 62
     0
 10
253.162
 20
15.7827
 30
0.0
 11
252.361
 21
15.7827
 31
0.0
  0
LINE
  8
0
 62
     0
 10
252.361
 20
15.7827
 30
0.0
 11
252.361
 21
16.7831
 31
0.0
  0
LINE
  8
0
 62
     0
 10
252.361
 20
16.7831
 30
0.0
 11
238.362
 21
16.7831
 31
0.0
  0
LINE
  8
0
 62
     0
 10
214.551
 20
16.7831
 30
0.0
 11
214.551
 21
15.7827
 31
0.0
  0
LINE
  8
0
 62
     0
 10
214.551
 20
15.7827
 30
0.0
 11
213.75
 21
15.7827
 31
0.0
  0
LINE
  8
0
 62
     0
 10
213.75
 20
15.7827
 30
0.0
 11
213.75
 21
12.6848
 31
0.0
  0
LINE
  8
0
 62
     0
 10
213.75
 20
12.6848
 30
0.0
 11
214.551
 21
12.6848
 31
0.0
  0
LINE
  8
0
 62
     0
 10
214.551
 20
12.6848
 30
0.0
 11
214.551
 21
6.88329
 31
0.0
  0
LINE
  8
0
 62
     0
 10
214.551
 20
6.88329
 30
0.0
 11
213.75
 21
6.88329
 31
0.0
  0
LINE
  8
0
 62
     0
 10
213.75
 20
6.88329
 30
0.0
 11
213.75
 21
3.78273
 31
0.0
  0
LINE
  8
0
 62
     0
 10
213.75
 20
3.78273
 30
0.0
 11
214.551
 21
3.78273
 31
0.0
  0
LINE
  8
0
 62
     0
 10
214.551
 20
3.78273
 30
0.0
 11
214.551
 21
2.78364
 31
0.0
  0
LINE
  8
0
 62
     0
 10
214.551
 20
2.78364
 30
0.0
 11
228.55
 21
2.78364
 31
0.0
  0
LINE
  8
0
 62
     0
 10
228.55
 20
2.78364
 30
0.0
 11
228.55
 21
3.78273
 31
0.0
  0
LINE
  8
0
 62
     0
 10
228.55
 20
3.78273
 30
0.0
 11
229.351
 21
3.78273
 31
0.0
  0
LINE
  8
0
 62
     0
 10
229.351
 20
3.78273
 30
0.0
 11
229.351
 21
6.88329
 31
0.0
  0
LINE
  8
0
 62
     0
 10
229.351
 20
6.88329
 30
0.0
 11
228.55
 21
6.88329
 31
0.0
  0
LINE
  8
0
 62
     0
 10
228.55
 20
6.88329
 30
0.0
 11
228.55
 21
12.6848
 31
0.0
  0
LINE
  8
0
 62
     0
 10
228.55
 20
12.6848
 30
0.0
 11
229.351
 21
12.6848
 31
0.0
  0
LINE
  8
0
 62
     0
 10
229.351
 20
12.6848
 30
0.0
 11
229.351
 21
15.7827
 31
0.0
  0
LINE
  8
0
 62
     0
 10
229.351
 20
15.7827
 30
0.0
 11
228.55
 21
15.7827
 31
0.0
  0
LINE
  8
0
 62
     0
 10
228.55
 20
15.7827
 30
0.0
 11
228.55
 21
16.7831
 31
0.0
  0
LINE
  8
0
 62
     0
 10
228.55
 20
16.7831
 30
0.0
 11
214.551
 21
16.7831
 31
0.0
  0
LINE
  8
0
 62
     0
 10
150.257
 20
16.7831
 30
0.0
 11
150.257
 21
15.7827
 31
0.0
  0
LINE
  8
0
 62
     0
 10
150.257
 20
15.7827
 30
0.0
 11
149.456
 21
15.7827
 31
0.0
  0
LINE
  8
0
 62
     0
 10
149.456
 20
15.7827
 30
0.0
 11
149.456
 21
12.6848
 31
0.0
  0
LINE
  8
0
 62
     0
 10
149.456
 20
12.6848
 30
0.0
 11
150.257
 21
12.6848
 31
0.0
  0
LINE
  8
0
 62
     0
 10
150.257
 20
12.6848
 30
0.0
 11
150.257
 21
6.88329
 31
0.0
  0
LINE
  8
0
 62
     0
 10
150.257
 20
6.88329
 30
0.0
 11
149.456
 21
6.88329
 31
0.0
  0
LINE
  8
0
 62
     0
 10
149.456
 20
6.88329
 30
0.0
 11
149.456
 21
3.78273
 31
0.0
  0
LINE
  8
0
 62
     0
 10
149.456
 20
3.78273
 30
0.0
 11
150.257
 21
3.78273
 31
0.0
  0
LINE
  8
0
 62
     0
 10
150.257
 20
3.78273
 30
0.0
 11
150.257
 21
2.78364
 31
0.0
  0
LINE
  8
0
 62
     0
 10
150.257
 20
2.78364
 30
0.0
 11
164.257
 21
2.78364
 31
0.0
  0
LINE
  8
0
 62
     0
 10
164.257
 20
2.78364
 30
0.0
 11
164.257
 21
3.78273
 31
0.0
  0
LINE
  8
0
 62
     0
 10
164.257
 20
3.78273
 30
0.0
 11
165.056
 21
3.78273
 31
0.0
  0
LINE
  8
0
 62
     0
 10
165.056
 20
3.78273
 30
0.0
 11
165.056
 21
6.88329
 31
0.0
  0
LINE
  8
0
 62
     0
 10
165.056
 20
6.88329
 30
0.0
 11
164.257
 21
6.88329
 31
0.0
  0
LINE
  8
0
 62
     0
 10
164.257
 20
6.88329
 30
0.0
 11
164.257
 21
12.6848
 31
0.0
  0
LINE
  8
0
 62
     0
 10
164.257
 20
12.6848
 30
0.0
 11
165.056
 21
12.6848
 31
0.0
  0
LINE
  8
0
 62
     0
 10
165.056
 20
12.6848
 30
0.0
 11
165.056
 21
15.7827
 31
0.0
  0
LINE
  8
0
 62
     0
 10
165.056
 20
15.7827
 30
0.0
 11
164.257
 21
15.7827
 31
0.0
  0
LINE
  8
0
 62
     0
 10
164.257
 20
15.7827
 30
0.0
 11
164.257
 21
16.7831
 31
0.0
  0
LINE
  8
0
 62
     0
 10
164.257
 20
16.7831
 30
0.0
 11
150.257
 21
16.7831
 31
0.0
  0
LINE
  8
0
 62
     0
 10
47.8621
 20
16.7831
 30
0.0
 11
47.8621
 21
15.7827
 31
0.0
  0
LINE
  8
0
 62
     0
 10
47.8621
 20
15.7827
 30
0.0
 11
47.0627
 21
15.7827
 31
0.0
  0
LINE
  8
0
 62
     0
 10
47.0627
 20
15.7827
 30
0.0
 11
47.0627
 21
12.6848
 31
0.0
  0
LINE
  8
0
 62
     0
 10
47.0627
 20
12.6848
 30
0.0
 11
47.8621
 21
12.6848
 31
0.0
  0
LINE
  8
0
 62
     0
 10
47.8621
 20
12.6848
 30
0.0
 11
47.8621
 21
6.88329
 31
0.0
  0
LINE
  8
0
 62
     0
 10
47.8621
 20
6.88329
 30
0.0
 11
47.0627
 21
6.88329
 31
0.0
  0
LINE
  8
0
 62
     0
 10
47.0627
 20
6.88329
 30
0.0
 11
47.0627
 21
3.78273
 31
0.0
  0
LINE
  8
0
 62
     0
 10
47.0627
 20
3.78273
 30
0.0
 11
47.8621
 21
3.78273
 31
0.0
  0
LINE
  8
0
 62
     0
 10
47.8621
 20
3.78273
 30
0.0
 11
47.8621
 21
2.78364
 31
0.0
  0
LINE
  8
0
 62
     0
 10
47.8621
 20
2.78364
 30
0.0
 11
61.8628
 21
2.78364
 31
0.0
  0
LINE
  8
0
 62
     0
 10
61.8628
 20
2.78364
 30
0.0
 11
61.8628
 21
3.78273
 31
0.0
  0
LINE
  8
0
 62
     0
 10
61.8628
 20
3.78273
 30
0.0
 11
62.6622
 21
3.78273
 31
0.0
  0
LINE
  8
0
 62
     0
 10
62.6622
 20
3.78273
 30
0.0
 11
62.6622
 21
6.88329
 31
0.0
  0
LINE
  8
0
 62
     0
 10
62.6622
 20
6.88329
 30
0.0
 11
61.8628
 21
6.88329
 31
0.0
  0
LINE
  8
0
 62
     0
 10
61.8628
 20
6.88329
 30
0.0
 11
61.8628
 21
12.6848
 31
0.0
  0
LINE
  8
0
 62
     0
 10
61.8628
 20
12.6848
 30
0.0
 11
62.6622
 21
12.6848
 31
0.0
  0
LINE
  8
0
 62
     0
 10
62.6622
 20
12.6848
 30
0.0
 11
62.6622
 21
15.7827
 31
0.0
  0
LINE
  8
0
 62
     0
 10
62.6622
 20
15.7827
 30
0.0
 11
61.8628
 21
15.7827
 31
0.0
  0
LINE
  8
0
 62
     0
 10
61.8628
 20
15.7827
 30
0.0
 11
61.8628
 21
16.7831
 31
0.0
  0
LINE
  8
0
 62
     0
 10
61.8628
 20
16.7831
 30
0.0
 11
47.8621
 21
16.7831
 31
0.0
  0
LINE
  8
0
 62
     0
 10
24.0509
 20
16.7831
 30
0.0
 11
24.0509
 21
15.7827
 31
0.0
  0
LINE
  8
0
 62
     0
 10
24.0509
 20
15.7827
 30
0.0
 11
23.2503
 21
15.7827
 31
0.0
  0
LINE
  8
0
 62
     0
 10
23.2503
 20
15.7827
 30
0.0
 11
23.2503
 21
12.6848
 31
0.0
  0
LINE
  8
0
 62
     0
 10
23.2503
 20
12.6848
 30
0.0
 11
24.0509
 21
12.6848
 31
0.0
  0
LINE
  8
0
 62
     0
 10
24.0509
 20
12.6848
 30
0.0
 11
24.0509
 21
6.88329
 31
0.0
  0
LINE
  8
0
 62
     0
 10
24.0509
 20
6.88329
 30
0.0
 11
23.2503
 21
6.88329
 31
0.0
  0
LINE
  8
0
 62
     0
 10
23.2503
 20
6.88329
 30
0.0
 11
23.2503
 21
3.78273
 31
0.0
  0
LINE
  8
0
 62
     0
 10
23.2503
 20
3.78273
 30
0.0
 11
24.0509
 21
3.78273
 31
0.0
  0
LINE
  8
0
 62
     0
 10
24.0509
 20
3.78273
 30
0.0
 11
24.0509
 21
2.78364
 31
0.0
  0
LINE
  8
0
 62
     0
 10
24.0509
 20
2.78364
 30
0.0
 11
38.0503
 21
2.78364
 31
0.0
  0
LINE
  8
0
 62
     0
 10
38.0503
 20
2.78364
 30
0.0
 11
38.0503
 21
3.78273
 31
0.0
  0
LINE
  8
0
 62
     0
 10
38.0503
 20
3.78273
 30
0.0
 11
38.8511
 21
3.78273
 31
0.0
  0
LINE
  8
0
 62
     0
 10
38.8511
 20
3.78273
 30
0.0
 11
38.8511
 21
6.88329
 31
0.0
  0
LINE
  8
0
 62
     0
 10
38.8511
 20
6.88329
 30
0.0
 11
38.0503
 21
6.88329
 31
0.0
  0
LINE
  8
0
 62
     0
 10
38.0503
 20
6.88329
 30
0.0
 11
38.0503
 21
12.6848
 31
0.0
  0
LINE
  8
0
 62
     0
 10
38.0503
 20
12.6848
 30
0.0
 11
38.8511
 21
12.6848
 31
0.0
  0
LINE
  8
0
 62
     0
 10
38.8511
 20
12.6848
 30
0.0
 11
38.8511
 21
15.7827
 31
0.0
  0
LINE
  8
0
 62
     0
 10
38.8511
 20
15.7827
 30
0.0
 11
38.0503
 21
15.7827
 31
0.0
  0
LINE
  8
0
 62
     0
 10
38.0503
 20
15.7827
 30
0.0
 11
38.0503
 21
16.7831
 31
0.0
  0
LINE
  8
0
 62
     0
 10
38.0503
 20
16.7831
 30
0.0
 11
24.0509
 21
16.7831
 31
0.0
  0
LINE
  8
0
 62
     0
 10
257.412
 20
35.833
 30
0.0
 11
257.412
 21
34.8327
 31
0.0
  0
LINE
  8
0
 62
     0
 10
257.412
 20
34.8327
 30
0.0
 11
256.611
 21
34.8327
 31
0.0
  0
LINE
  8
0
 62
     0
 10
256.611
 20
34.8327
 30
0.0
 11
256.611
 21
31.7335
 31
0.0
  0
LINE
  8
0
 62
     0
 10
256.611
 20
31.7335
 30
0.0
 11
257.412
 21
31.7335
 31
0.0
  0
LINE
  8
0
 62
     0
 10
257.412
 20
31.7335
 30
0.0
 11
257.412
 21
25.9333
 31
0.0
  0
LINE
  8
0
 62
     0
 10
257.412
 20
25.9333
 30
0.0
 11
256.611
 21
25.9333
 31
0.0
  0
LINE
  8
0
 62
     0
 10
256.611
 20
25.9333
 30
0.0
 11
256.611
 21
22.8327
 31
0.0
  0
LINE
  8
0
 62
     0
 10
256.611
 20
22.8327
 30
0.0
 11
257.412
 21
22.8327
 31
0.0
  0
LINE
  8
0
 62
     0
 10
257.412
 20
22.8327
 30
0.0
 11
257.412
 21
21.8336
 31
0.0
  0
LINE
  8
0
 62
     0
 10
257.412
 20
21.8336
 30
0.0
 11
271.413
 21
21.8336
 31
0.0
  0
LINE
  8
0
 62
     0
 10
271.413
 20
21.8336
 30
0.0
 11
271.413
 21
22.8327
 31
0.0
  0
LINE
  8
0
 62
     0
 10
271.413
 20
22.8327
 30
0.0
 11
272.212
 21
22.8327
 31
0.0
  0
LINE
  8
0
 62
     0
 10
272.212
 20
22.8327
 30
0.0
 11
272.212
 21
25.9333
 31
0.0
  0
LINE
  8
0
 62
     0
 10
272.212
 20
25.9333
 30
0.0
 11
271.413
 21
25.9333
 31
0.0
  0
LINE
  8
0
 62
     0
 10
271.413
 20
25.9333
 30
0.0
 11
271.413
 21
31.7335
 31
0.0
  0
LINE
  8
0
 62
     0
 10
271.413
 20
31.7335
 30
0.0
 11
272.212
 21
31.7335
 31
0.0
  0
LINE
  8
0
 62
     0
 10
272.212
 20
31.7335
 30
0.0
 11
272.212
 21
34.8327
 31
0.0
  0
LINE
  8
0
 62
     0
 10
272.212
 20
34.8327
 30
0.0
 11
271.413
 21
34.8327
 31
0.0
  0
LINE
  8
0
 62
     0
 10
271.413
 20
34.8327
 30
0.0
 11
271.413
 21
35.833
 31
0.0
  0
LINE
  8
0
 62
     0
 10
271.413
 20
35.833
 30
0.0
 11
257.412
 21
35.833
 31
0.0
  0
LINE
  8
0
 62
     0
 10
235.982
 20
35.833
 30
0.0
 11
235.982
 21
34.8327
 31
0.0
  0
LINE
  8
0
 62
     0
 10
235.982
 20
34.8327
 30
0.0
 11
235.181
 21
34.8327
 31
0.0
  0
LINE
  8
0
 62
     0
 10
235.181
 20
34.8327
 30
0.0
 11
235.181
 21
31.7335
 31
0.0
  0
LINE
  8
0
 62
     0
 10
235.181
 20
31.7335
 30
0.0
 11
235.982
 21
31.7335
 31
0.0
  0
LINE
  8
0
 62
     0
 10
235.982
 20
31.7335
 30
0.0
 11
235.982
 21
25.9333
 31
0.0
  0
LINE
  8
0
 62
     0
 10
235.982
 20
25.9333
 30
0.0
 11
235.181
 21
25.9333
 31
0.0
  0
LINE
  8
0
 62
     0
 10
235.181
 20
25.9333
 30
0.0
 11
235.181
 21
22.8327
 31
0.0
  0
LINE
  8
0
 62
     0
 10
235.181
 20
22.8327
 30
0.0
 11
235.982
 21
22.8327
 31
0.0
  0
LINE
  8
0
 62
     0
 10
235.982
 20
22.8327
 30
0.0
 11
235.982
 21
21.8336
 31
0.0
  0
LINE
  8
0
 62
     0
 10
235.982
 20
21.8336
 30
0.0
 11
249.982
 21
21.8336
 31
0.0
  0
LINE
  8
0
 62
     0
 10
249.982
 20
21.8336
 30
0.0
 11
249.982
 21
22.8327
 31
0.0
  0
LINE
  8
0
 62
     0
 10
249.982
 20
22.8327
 30
0.0
 11
250.781
 21
22.8327
 31
0.0
  0
LINE
  8
0
 62
     0
 10
250.781
 20
22.8327
 30
0.0
 11
250.781
 21
25.9333
 31
0.0
  0
LINE
  8
0
 62
     0
 10
250.781
 20
25.9333
 30
0.0
 11
249.982
 21
25.9333
 31
0.0
  0
LINE
  8
0
 62
     0
 10
249.982
 20
25.9333
 30
0.0
 11
249.982
 21
31.7335
 31
0.0
  0
LINE
  8
0
 62
     0
 10
249.982
 20
31.7335
 30
0.0
 11
250.781
 21
31.7335
 31
0.0
  0
LINE
  8
0
 62
     0
 10
250.781
 20
31.7335
 30
0.0
 11
250.781
 21
34.8327
 31
0.0
  0
LINE
  8
0
 62
     0
 10
250.781
 20
34.8327
 30
0.0
 11
249.982
 21
34.8327
 31
0.0
  0
LINE
  8
0
 62
     0
 10
249.982
 20
34.8327
 30
0.0
 11
249.982
 21
35.833
 31
0.0
  0
LINE
  8
0
 62
     0
 10
249.982
 20
35.833
 30
0.0
 11
235.982
 21
35.833
 31
0.0
  0
LINE
  8
0
 62
     0
 10
216.932
 20
35.833
 30
0.0
 11
216.932
 21
34.8327
 31
0.0
  0
LINE
  8
0
 62
     0
 10
216.932
 20
34.8327
 30
0.0
 11
216.131
 21
34.8327
 31
0.0
  0
LINE
  8
0
 62
     0
 10
216.131
 20
34.8327
 30
0.0
 11
216.131
 21
31.7335
 31
0.0
  0
LINE
  8
0
 62
     0
 10
216.131
 20
31.7335
 30
0.0
 11
216.932
 21
31.7335
 31
0.0
  0
LINE
  8
0
 62
     0
 10
216.932
 20
31.7335
 30
0.0
 11
216.932
 21
25.9333
 31
0.0
  0
LINE
  8
0
 62
     0
 10
216.932
 20
25.9333
 30
0.0
 11
216.131
 21
25.9333
 31
0.0
  0
LINE
  8
0
 62
     0
 10
216.131
 20
25.9333
 30
0.0
 11
216.131
 21
22.8327
 31
0.0
  0
LINE
  8
0
 62
     0
 10
216.131
 20
22.8327
 30
0.0
 11
216.932
 21
22.8327
 31
0.0
  0
LINE
  8
0
 62
     0
 10
216.932
 20
22.8327
 30
0.0
 11
216.932
 21
21.8336
 31
0.0
  0
LINE
  8
0
 62
     0
 10
216.932
 20
21.8336
 30
0.0
 11
230.932
 21
21.8336
 31
0.0
  0
LINE
  8
0
 62
     0
 10
230.932
 20
21.8336
 30
0.0
 11
230.932
 21
22.8327
 31
0.0
  0
LINE
  8
0
 62
     0
 10
230.932
 20
22.8327
 30
0.0
 11
231.731
 21
22.8327
 31
0.0
  0
LINE
  8
0
 62
     0
 10
231.731
 20
22.8327
 30
0.0
 11
231.731
 21
25.9333
 31
0.0
  0
LINE
  8
0
 62
     0
 10
231.731
 20
25.9333
 30
0.0
 11
230.932
 21
25.9333
 31
0.0
  0
LINE
  8
0
 62
     0
 10
230.932
 20
25.9333
 30
0.0
 11
230.932
 21
31.7335
 31
0.0
  0
LINE
  8
0
 62
     0
 10
230.932
 20
31.7335
 30
0.0
 11
231.731
 21
31.7335
 31
0.0
  0
LINE
  8
0
 62
     0
 10
231.731
 20
31.7335
 30
0.0
 11
231.731
 21
34.8327
 31
0.0
  0
LINE
  8
0
 62
     0
 10
231.731
 20
34.8327
 30
0.0
 11
230.932
 21
34.8327
 31
0.0
  0
LINE
  8
0
 62
     0
 10
230.932
 20
34.8327
 30
0.0
 11
230.932
 21
35.833
 31
0.0
  0
LINE
  8
0
 62
     0
 10
230.932
 20
35.833
 30
0.0
 11
216.932
 21
35.833
 31
0.0
  0
LINE
  8
0
 62
     0
 10
197.882
 20
35.833
 30
0.0
 11
197.882
 21
34.8327
 31
0.0
  0
LINE
  8
0
 62
     0
 10
197.882
 20
34.8327
 30
0.0
 11
197.081
 21
34.8327
 31
0.0
  0
LINE
  8
0
 62
     0
 10
197.081
 20
34.8327
 30
0.0
 11
197.081
 21
31.7335
 31
0.0
  0
LINE
  8
0
 62
     0
 10
197.081
 20
31.7335
 30
0.0
 11
197.882
 21
31.7335
 31
0.0
  0
LINE
  8
0
 62
     0
 10
197.882
 20
31.7335
 30
0.0
 11
197.882
 21
25.9333
 31
0.0
  0
LINE
  8
0
 62
     0
 10
197.882
 20
25.9333
 30
0.0
 11
197.081
 21
25.9333
 31
0.0
  0
LINE
  8
0
 62
     0
 10
197.081
 20
25.9333
 30
0.0
 11
197.081
 21
22.8327
 31
0.0
  0
LINE
  8
0
 62
     0
 10
197.081
 20
22.8327
 30
0.0
 11
197.882
 21
22.8327
 31
0.0
  0
LINE
  8
0
 62
     0
 10
197.882
 20
22.8327
 30
0.0
 11
197.882
 21
21.8336
 31
0.0
  0
LINE
  8
0
 62
     0
 10
197.882
 20
21.8336
 30
0.0
 11
211.882
 21
21.8336
 31
0.0
  0
LINE
  8
0
 62
     0
 10
211.882
 20
21.8336
 30
0.0
 11
211.882
 21
22.8327
 31
0.0
  0
LINE
  8
0
 62
     0
 10
211.882
 20
22.8327
 30
0.0
 11
212.681
 21
22.8327
 31
0.0
  0
LINE
  8
0
 62
     0
 10
212.681
 20
22.8327
 30
0.0
 11
212.681
 21
25.9333
 31
0.0
  0
LINE
  8
0
 62
     0
 10
212.681
 20
25.9333
 30
0.0
 11
211.882
 21
25.9333
 31
0.0
  0
LINE
  8
0
 62
     0
 10
211.882
 20
25.9333
 30
0.0
 11
211.882
 21
31.7335
 31
0.0
  0
LINE
  8
0
 62
     0
 10
211.882
 20
31.7335
 30
0.0
 11
212.681
 21
31.7335
 31
0.0
  0
LINE
  8
0
 62
     0
 10
212.681
 20
31.7335
 30
0.0
 11
212.681
 21
34.8327
 31
0.0
  0
LINE
  8
0
 62
     0
 10
212.681
 20
34.8327
 30
0.0
 11
211.882
 21
34.8327
 31
0.0
  0
LINE
  8
0
 62
     0
 10
211.882
 20
34.8327
 30
0.0
 11
211.882
 21
35.833
 31
0.0
  0
LINE
  8
0
 62
     0
 10
211.882
 20
35.833
 30
0.0
 11
197.882
 21
35.833
 31
0.0
  0
LINE
  8
0
 62
     0
 10
178.832
 20
35.833
 30
0.0
 11
178.832
 21
34.8327
 31
0.0
  0
LINE
  8
0
 62
     0
 10
178.832
 20
34.8327
 30
0.0
 11
178.031
 21
34.8327
 31
0.0
  0
LINE
  8
0
 62
     0
 10
178.031
 20
34.8327
 30
0.0
 11
178.031
 21
31.7335
 31
0.0
  0
LINE
  8
0
 62
     0
 10
178.031
 20
31.7335
 30
0.0
 11
178.832
 21
31.7335
 31
0.0
  0
LINE
  8
0
 62
     0
 10
178.832
 20
31.7335
 30
0.0
 11
178.832
 21
25.9333
 31
0.0
  0
LINE
  8
0
 62
     0
 10
178.832
 20
25.9333
 30
0.0
 11
178.031
 21
25.9333
 31
0.0
  0
LINE
  8
0
 62
     0
 10
178.031
 20
25.9333
 30
0.0
 11
178.031
 21
22.8327
 31
0.0
  0
LINE
  8
0
 62
     0
 10
178.031
 20
22.8327
 30
0.0
 11
178.832
 21
22.8327
 31
0.0
  0
LINE
  8
0
 62
     0
 10
178.832
 20
22.8327
 30
0.0
 11
178.832
 21
21.8336
 31
0.0
  0
LINE
  8
0
 62
     0
 10
178.832
 20
21.8336
 30
0.0
 11
192.832
 21
21.8336
 31
0.0
  0
LINE
  8
0
 62
     0
 10
192.832
 20
21.8336
 30
0.0
 11
192.832
 21
22.8327
 31
0.0
  0
LINE
  8
0
 62
     0
 10
192.832
 20
22.8327
 30
0.0
 11
193.631
 21
22.8327
 31
0.0
  0
LINE
  8
0
 62
     0
 10
193.631
 20
22.8327
 30
0.0
 11
193.631
 21
25.9333
 31
0.0
  0
LINE
  8
0
 62
     0
 10
193.631
 20
25.9333
 30
0.0
 11
192.832
 21
25.9333
 31
0.0
  0
LINE
  8
0
 62
     0
 10
192.832
 20
25.9333
 30
0.0
 11
192.832
 21
31.7335
 31
0.0
  0
LINE
  8
0
 62
     0
 10
192.832
 20
31.7335
 30
0.0
 11
193.631
 21
31.7335
 31
0.0
  0
LINE
  8
0
 62
     0
 10
193.631
 20
31.7335
 30
0.0
 11
193.631
 21
34.8327
 31
0.0
  0
LINE
  8
0
 62
     0
 10
193.631
 20
34.8327
 30
0.0
 11
192.832
 21
34.8327
 31
0.0
  0
LINE
  8
0
 62
     0
 10
192.832
 20
34.8327
 30
0.0
 11
192.832
 21
35.833
 31
0.0
  0
LINE
  8
0
 62
     0
 10
192.832
 20
35.833
 30
0.0
 11
178.832
 21
35.833
 31
0.0
  0
LINE
  8
0
 62
     0
 10
159.782
 20
35.833
 30
0.0
 11
159.782
 21
34.8327
 31
0.0
  0
LINE
  8
0
 62
     0
 10
159.782
 20
34.8327
 30
0.0
 11
158.981
 21
34.8327
 31
0.0
  0
LINE
  8
0
 62
     0
 10
158.981
 20
34.8327
 30
0.0
 11
158.981
 21
31.7335
 31
0.0
  0
LINE
  8
0
 62
     0
 10
158.981
 20
31.7335
 30
0.0
 11
159.782
 21
31.7335
 31
0.0
  0
LINE
  8
0
 62
     0
 10
159.782
 20
31.7335
 30
0.0
 11
159.782
 21
25.9333
 31
0.0
  0
LINE
  8
0
 62
     0
 10
159.782
 20
25.9333
 30
0.0
 11
158.981
 21
25.9333
 31
0.0
  0
LINE
  8
0
 62
     0
 10
158.981
 20
25.9333
 30
0.0
 11
158.981
 21
22.8327
 31
0.0
  0
LINE
  8
0
 62
     0
 10
158.981
 20
22.8327
 30
0.0
 11
159.782
 21
22.8327
 31
0.0
  0
LINE
  8
0
 62
     0
 10
159.782
 20
22.8327
 30
0.0
 11
159.782
 21
21.8336
 31
0.0
  0
LINE
  8
0
 62
     0
 10
159.782
 20
21.8336
 30
0.0
 11
173.782
 21
21.8336
 31
0.0
  0
LINE
  8
0
 62
     0
 10
173.782
 20
21.8336
 30
0.0
 11
173.782
 21
22.8327
 31
0.0
  0
LINE
  8
0
 62
     0
 10
173.782
 20
22.8327
 30
0.0
 11
174.581
 21
22.8327
 31
0.0
  0
LINE
  8
0
 62
     0
 10
174.581
 20
22.8327
 30
0.0
 11
174.581
 21
25.9333
 31
0.0
  0
LINE
  8
0
 62
     0
 10
174.581
 20
25.9333
 30
0.0
 11
173.782
 21
25.9333
 31
0.0
  0
LINE
  8
0
 62
     0
 10
173.782
 20
25.9333
 30
0.0
 11
173.782
 21
31.7335
 31
0.0
  0
LINE
  8
0
 62
     0
 10
173.782
 20
31.7335
 30
0.0
 11
174.581
 21
31.7335
 31
0.0
  0
LINE
  8
0
 62
     0
 10
174.581
 20
31.7335
 30
0.0
 11
174.581
 21
34.8327
 31
0.0
  0
LINE
  8
0
 62
     0
 10
174.581
 20
34.8327
 30
0.0
 11
173.782
 21
34.8327
 31
0.0
  0
LINE
  8
0
 62
     0
 10
173.782
 20
34.8327
 30
0.0
 11
173.782
 21
35.833
 31
0.0
  0
LINE
  8
0
 62
     0
 10
173.782
 20
35.833
 30
0.0
 11
159.782
 21
35.833
 31
0.0
  0
LINE
  8
0
 62
     0
 10
112.157
 20
35.833
 30
0.0
 11
112.157
 21
34.8327
 31
0.0
  0
LINE
  8
0
 62
     0
 10
112.157
 20
34.8327
 30
0.0
 11
111.356
 21
34.8327
 31
0.0
  0
LINE
  8
0
 62
     0
 10
111.356
 20
34.8327
 30
0.0
 11
111.356
 21
31.7335
 31
0.0
  0
LINE
  8
0
 62
     0
 10
111.356
 20
31.7335
 30
0.0
 11
112.157
 21
31.7335
 31
0.0
  0
LINE
  8
0
 62
     0
 10
112.157
 20
31.7335
 30
0.0
 11
112.157
 21
25.9333
 31
0.0
  0
LINE
  8
0
 62
     0
 10
112.157
 20
25.9333
 30
0.0
 11
111.356
 21
25.9333
 31
0.0
  0
LINE
  8
0
 62
     0
 10
111.356
 20
25.9333
 30
0.0
 11
111.356
 21
22.8327
 31
0.0
  0
LINE
  8
0
 62
     0
 10
111.356
 20
22.8327
 30
0.0
 11
112.157
 21
22.8327
 31
0.0
  0
LINE
  8
0
 62
     0
 10
112.157
 20
22.8327
 30
0.0
 11
112.157
 21
21.8336
 31
0.0
  0
LINE
  8
0
 62
     0
 10
112.157
 20
21.8336
 30
0.0
 11
126.157
 21
21.8336
 31
0.0
  0
LINE
  8
0
 62
     0
 10
126.157
 20
21.8336
 30
0.0
 11
126.157
 21
22.8327
 31
0.0
  0
LINE
  8
0
 62
     0
 10
126.157
 20
22.8327
 30
0.0
 11
126.956
 21
22.8327
 31
0.0
  0
LINE
  8
0
 62
     0
 10
126.956
 20
22.8327
 30
0.0
 11
126.956
 21
25.9333
 31
0.0
  0
LINE
  8
0
 62
     0
 10
126.956
 20
25.9333
 30
0.0
 11
126.157
 21
25.9333
 31
0.0
  0
LINE
  8
0
 62
     0
 10
126.157
 20
25.9333
 30
0.0
 11
126.157
 21
31.7335
 31
0.0
  0
LINE
  8
0
 62
     0
 10
126.157
 20
31.7335
 30
0.0
 11
126.956
 21
31.7335
 31
0.0
  0
LINE
  8
0
 62
     0
 10
126.956
 20
31.7335
 30
0.0
 11
126.956
 21
34.8327
 31
0.0
  0
LINE
  8
0
 62
     0
 10
126.956
 20
34.8327
 30
0.0
 11
126.157
 21
34.8327
 31
0.0
  0
LINE
  8
0
 62
     0
 10
126.157
 20
34.8327
 30
0.0
 11
126.157
 21
35.833
 31
0.0
  0
LINE
  8
0
 62
     0
 10
126.157
 20
35.833
 30
0.0
 11
112.157
 21
35.833
 31
0.0
  0
LINE
  8
0
 62
     0
 10
93.1072
 20
35.833
 30
0.0
 11
93.1072
 21
34.8327
 31
0.0
  0
LINE
  8
0
 62
     0
 10
93.1072
 20
34.8327
 30
0.0
 11
92.3064
 21
34.8327
 31
0.0
  0
LINE
  8
0
 62
     0
 10
92.3064
 20
34.8327
 30
0.0
 11
92.3064
 21
31.7335
 31
0.0
  0
LINE
  8
0
 62
     0
 10
92.3064
 20
31.7335
 30
0.0
 11
93.1072
 21
31.7335
 31
0.0
  0
LINE
  8
0
 62
     0
 10
93.1072
 20
31.7335
 30
0.0
 11
93.1072
 21
25.9333
 31
0.0
  0
LINE
  8
0
 62
     0
 10
93.1072
 20
25.9333
 30
0.0
 11
92.3064
 21
25.9333
 31
0.0
  0
LINE
  8
0
 62
     0
 10
92.3064
 20
25.9333
 30
0.0
 11
92.3064
 21
22.8327
 31
0.0
  0
LINE
  8
0
 62
     0
 10
92.3064
 20
22.8327
 30
0.0
 11
93.1072
 21
22.8327
 31
0.0
  0
LINE
  8
0
 62
     0
 10
93.1072
 20
22.8327
 30
0.0
 11
93.1072
 21
21.8336
 31
0.0
  0
LINE
  8
0
 62
     0
 10
93.1072
 20
21.8336
 30
0.0
 11
107.107
 21
21.8336
 31
0.0
  0
LINE
  8
0
 62
     0
 10
107.107
 20
21.8336
 30
0.0
 11
107.107
 21
22.8327
 31
0.0
  0
LINE
  8
0
 62
     0
 10
107.107
 20
22.8327
 30
0.0
 11
107.906
 21
22.8327
 31
0.0
  0
LINE
  8
0
 62
     0
 10
107.906
 20
22.8327
 30
0.0
 11
107.906
 21
25.9333
 31
0.0
  0
LINE
  8
0
 62
     0
 10
107.906
 20
25.9333
 30
0.0
 11
107.107
 21
25.9333
 31
0.0
  0
LINE
  8
0
 62
     0
 10
107.107
 20
25.9333
 30
0.0
 11
107.107
 21
31.7335
 31
0.0
  0
LINE
  8
0
 62
     0
 10
107.107
 20
31.7335
 30
0.0
 11
107.906
 21
31.7335
 31
0.0
  0
LINE
  8
0
 62
     0
 10
107.906
 20
31.7335
 30
0.0
 11
107.906
 21
34.8327
 31
0.0
  0
LINE
  8
0
 62
     0
 10
107.906
 20
34.8327
 30
0.0
 11
107.107
 21
34.8327
 31
0.0
  0
LINE
  8
0
 62
     0
 10
107.107
 20
34.8327
 30
0.0
 11
107.107
 21
35.833
 31
0.0
  0
LINE
  8
0
 62
     0
 10
107.107
 20
35.833
 30
0.0
 11
93.1072
 21
35.833
 31
0.0
  0
LINE
  8
0
 62
     0
 10
74.0572
 20
35.833
 30
0.0
 11
74.0572
 21
34.8327
 31
0.0
  0
LINE
  8
0
 62
     0
 10
74.0572
 20
34.8327
 30
0.0
 11
73.2564
 21
34.8327
 31
0.0
  0
LINE
  8
0
 62
     0
 10
73.2564
 20
34.8327
 30
0.0
 11
73.2564
 21
31.7335
 31
0.0
  0
LINE
  8
0
 62
     0
 10
73.2564
 20
31.7335
 30
0.0
 11
74.0572
 21
31.7335
 31
0.0
  0
LINE
  8
0
 62
     0
 10
74.0572
 20
31.7335
 30
0.0
 11
74.0572
 21
25.9333
 31
0.0
  0
LINE
  8
0
 62
     0
 10
74.0572
 20
25.9333
 30
0.0
 11
73.2564
 21
25.9333
 31
0.0
  0
LINE
  8
0
 62
     0
 10
73.2564
 20
25.9333
 30
0.0
 11
73.2564
 21
22.8327
 31
0.0
  0
LINE
  8
0
 62
     0
 10
73.2564
 20
22.8327
 30
0.0
 11
74.0572
 21
22.8327
 31
0.0
  0
LINE
  8
0
 62
     0
 10
74.0572
 20
22.8327
 30
0.0
 11
74.0572
 21
21.8336
 31
0.0
  0
LINE
  8
0
 62
     0
 10
74.0572
 20
21.8336
 30
0.0
 11
88.0565
 21
21.8336
 31
0.0
  0
LINE
  8
0
 62
     0
 10
88.0565
 20
21.8336
 30
0.0
 11
88.0565
 21
22.8327
 31
0.0
  0
LINE
  8
0
 62
     0
 10
88.0565
 20
22.8327
 30
0.0
 11
88.8559
 21
22.8327
 31
0.0
  0
LINE
  8
0
 62
     0
 10
88.8559
 20
22.8327
 30
0.0
 11
88.8559
 21
25.9333
 31
0.0
  0
LINE
  8
0
 62
     0
 10
88.8559
 20
25.9333
 30
0.0
 11
88.0565
 21
25.9333
 31
0.0
  0
LINE
  8
0
 62
     0
 10
88.0565
 20
25.9333
 30
0.0
 11
88.0565
 21
31.7335
 31
0.0
  0
LINE
  8
0
 62
     0
 10
88.0565
 20
31.7335
 30
0.0
 11
88.8559
 21
31.7335
 31
0.0
  0
LINE
  8
0
 62
     0
 10
88.8559
 20
31.7335
 30
0.0
 11
88.8559
 21
34.8327
 31
0.0
  0
LINE
  8
0
 62
     0
 10
88.8559
 20
34.8327
 30
0.0
 11
88.0565
 21
34.8327
 31
0.0
  0
LINE
  8
0
 62
     0
 10
88.0565
 20
34.8327
 30
0.0
 11
88.0565
 21
35.833
 31
0.0
  0
LINE
  8
0
 62
     0
 10
88.0565
 20
35.833
 30
0.0
 11
74.0572
 21
35.833
 31
0.0
  0
LINE
  8
0
 62
     0
 10
55.0072
 20
35.833
 30
0.0
 11
55.0072
 21
34.8327
 31
0.0
  0
LINE
  8
0
 62
     0
 10
55.0072
 20
34.8327
 30
0.0
 11
54.2064
 21
34.8327
 31
0.0
  0
LINE
  8
0
 62
     0
 10
54.2064
 20
34.8327
 30
0.0
 11
54.2064
 21
31.7335
 31
0.0
  0
LINE
  8
0
 62
     0
 10
54.2064
 20
31.7335
 30
0.0
 11
55.0072
 21
31.7335
 31
0.0
  0
LINE
  8
0
 62
     0
 10
55.0072
 20
31.7335
 30
0.0
 11
55.0072
 21
25.9333
 31
0.0
  0
LINE
  8
0
 62
     0
 10
55.0072
 20
25.9333
 30
0.0
 11
54.2064
 21
25.9333
 31
0.0
  0
LINE
  8
0
 62
     0
 10
54.2064
 20
25.9333
 30
0.0
 11
54.2064
 21
22.8327
 31
0.0
  0
LINE
  8
0
 62
     0
 10
54.2064
 20
22.8327
 30
0.0
 11
55.0072
 21
22.8327
 31
0.0
  0
LINE
  8
0
 62
     0
 10
55.0072
 20
22.8327
 30
0.0
 11
55.0072
 21
21.8336
 31
0.0
  0
LINE
  8
0
 62
     0
 10
55.0072
 20
21.8336
 30
0.0
 11
69.0065
 21
21.8336
 31
0.0
  0
LINE
  8
0
 62
     0
 10
69.0065
 20
21.8336
 30
0.0
 11
69.0065
 21
22.8327
 31
0.0
  0
LINE
  8
0
 62
     0
 10
69.0065
 20
22.8327
 30
0.0
 11
69.8059
 21
22.8327
 31
0.0
  0
LINE
  8
0
 62
     0
 10
69.8059
 20
22.8327
 30
0.0
 11
69.8059
 21
25.9333
 31
0.0
  0
LINE
  8
0
 62
     0
 10
69.8059
 20
25.9333
 30
0.0
 11
69.0065
 21
25.9333
 31
0.0
  0
LINE
  8
0
 62
     0
 10
69.0065
 20
25.9333
 30
0.0
 11
69.0065
 21
31.7335
 31
0.0
  0
LINE
  8
0
 62
     0
 10
69.0065
 20
31.7335
 30
0.0
 11
69.8059
 21
31.7335
 31
0.0
  0
LINE
  8
0
 62
     0
 10
69.8059
 20
31.7335
 30
0.0
 11
69.8059
 21
34.8327
 31
0.0
  0
LINE
  8
0
 62
     0
 10
69.8059
 20
34.8327
 30
0.0
 11
69.0065
 21
34.8327
 31
0.0
  0
LINE
  8
0
 62
     0
 10
69.0065
 20
34.8327
 30
0.0
 11
69.0065
 21
35.833
 31
0.0
  0
LINE
  8
0
 62
     0
 10
69.0065
 20
35.833
 30
0.0
 11
55.0072
 21
35.833
 31
0.0
  0
LINE
  8
0
 62
     0
 10
35.9572
 20
35.833
 30
0.0
 11
35.9572
 21
34.8327
 31
0.0
  0
LINE
  8
0
 62
     0
 10
35.9572
 20
34.8327
 30
0.0
 11
35.1565
 21
34.8327
 31
0.0
  0
LINE
  8
0
 62
     0
 10
35.1565
 20
34.8327
 30
0.0
 11
35.1565
 21
31.7335
 31
0.0
  0
LINE
  8
0
 62
     0
 10
35.1565
 20
31.7335
 30
0.0
 11
35.9572
 21
31.7335
 31
0.0
  0
LINE
  8
0
 62
     0
 10
35.9572
 20
31.7335
 30
0.0
 11
35.9572
 21
25.9333
 31
0.0
  0
LINE
  8
0
 62
     0
 10
35.9572
 20
25.9333
 30
0.0
 11
35.1565
 21
25.9333
 31
0.0
  0
LINE
  8
0
 62
     0
 10
35.1565
 20
25.9333
 30
0.0
 11
35.1565
 21
22.8327
 31
0.0
  0
LINE
  8
0
 62
     0
 10
35.1565
 20
22.8327
 30
0.0
 11
35.9572
 21
22.8327
 31
0.0
  0
LINE
  8
0
 62
     0
 10
35.9572
 20
22.8327
 30
0.0
 11
35.9572
 21
21.8336
 31
0.0
  0
LINE
  8
0
 62
     0
 10
35.9572
 20
21.8336
 30
0.0
 11
49.9565
 21
21.8336
 31
0.0
  0
LINE
  8
0
 62
     0
 10
49.9565
 20
21.8336
 30
0.0
 11
49.9565
 21
22.8327
 31
0.0
  0
LINE
  8
0
 62
     0
 10
49.9565
 20
22.8327
 30
0.0
 11
50.7559
 21
22.8327
 31
0.0
  0
LINE
  8
0
 62
     0
 10
50.7559
 20
22.8327
 30
0.0
 11
50.7559
 21
25.9333
 31
0.0
  0
LINE
  8
0
 62
     0
 10
50.7559
 20
25.9333
 30
0.0
 11
49.9565
 21
25.9333
 31
0.0
  0
LINE
  8
0
 62
     0
 10
49.9565
 20
25.9333
 30
0.0
 11
49.9565
 21
31.7335
 31
0.0
  0
LINE
  8
0
 62
     0
 10
49.9565
 20
31.7335
 30
0.0
 11
50.7559
 21
31.7335
 31
0.0
  0
LINE
  8
0
 62
     0
 10
50.7559
 20
31.7335
 30
0.0
 11
50.7559
 21
34.8327
 31
0.0
  0
LINE
  8
0
 62
     0
 10
50.7559
 20
34.8327
 30
0.0
 11
49.9565
 21
34.8327
 31
0.0
  0
LINE
  8
0
 62
     0
 10
49.9565
 20
34.8327
 30
0.0
 11
49.9565
 21
35.833
 31
0.0
  0
LINE
  8
0
 62
     0
 10
49.9565
 20
35.833
 30
0.0
 11
35.9572
 21
35.833
 31
0.0
  0
LINE
  8
0
 62
     0
 10
5.00091
 20
35.833
 30
0.0
 11
5.00091
 21
34.8327
 31
0.0
  0
LINE
  8
0
 62
     0
 10
5.00091
 20
34.8327
 30
0.0
 11
4.20028
 21
34.8327
 31
0.0
  0
LINE
  8
0
 62
     0
 10
4.20028
 20
34.8327
 30
0.0
 11
4.20028
 21
31.7335
 31
0.0
  0
LINE
  8
0
 62
     0
 10
4.20028
 20
31.7335
 30
0.0
 11
5.00091
 21
31.7335
 31
0.0
  0
LINE
  8
0
 62
     0
 10
5.00091
 20
31.7335
 30
0.0
 11
5.00091
 21
25.9333
 31
0.0
  0
LINE
  8
0
 62
     0
 10
5.00091
 20
25.9333
 30
0.0
 11
4.20028
 21
25.9333
 31
0.0
  0
LINE
  8
0
 62
     0
 10
4.20028
 20
25.9333
 30
0.0
 11
4.20028
 21
22.8327
 31
0.0
  0
LINE
  8
0
 62
     0
 10
4.20028
 20
22.8327
 30
0.0
 11
5.00091
 21
22.8327
 31
0.0
  0
LINE
  8
0
 62
     0
 10
5.00091
 20
22.8327
 30
0.0
 11
5.00091
 21
21.8336
 31
0.0
  0
LINE
  8
0
 62
     0
 10
5.00091
 20
21.8336
 30
0.0
 11
19.0004
 21
21.8336
 31
0.0
  0
LINE
  8
0
 62
     0
 10
19.0004
 20
21.8336
 30
0.0
 11
19.0004
 21
22.8327
 31
0.0
  0
LINE
  8
0
 62
     0
 10
19.0004
 20
22.8327
 30
0.0
 11
19.801
 21
22.8327
 31
0.0
  0
LINE
  8
0
 62
     0
 10
19.801
 20
22.8327
 30
0.0
 11
19.801
 21
25.9333
 31
0.0
  0
LINE
  8
0
 62
     0
 10
19.801
 20
25.9333
 30
0.0
 11
19.0004
 21
25.9333
 31
0.0
  0
LINE
  8
0
 62
     0
 10
19.0004
 20
25.9333
 30
0.0
 11
19.0004
 21
31.7335
 31
0.0
  0
LINE
  8
0
 62
     0
 10
19.0004
 20
31.7335
 30
0.0
 11
19.801
 21
31.7335
 31
0.0
  0
LINE
  8
0
 62
     0
 10
19.801
 20
31.7335
 30
0.0
 11
19.801
 21
34.8327
 31
0.0
  0
LINE
  8
0
 62
     0
 10
19.801
 20
34.8327
 30
0.0
 11
19.0004
 21
34.8327
 31
0.0
  0
LINE
  8
0
 62
     0
 10
19.0004
 20
34.8327
 30
0.0
 11
19.0004
 21
35.833
 31
0.0
  0
LINE
  8
0
 62
     0
 10
19.0004
 20
35.833
 30
0.0
 11
5.00091
 21
35.833
 31
0.0
  0
LINE
  8
0
 62
     0
 10
252.65
 20
54.8831
 30
0.0
 11
252.65
 21
53.8826
 31
0.0
  0
LINE
  8
0
 62
     0
 10
252.65
 20
53.8826
 30
0.0
 11
251.849
 21
53.8826
 31
0.0
  0
LINE
  8
0
 62
     0
 10
251.849
 20
53.8826
 30
0.0
 11
251.849
 21
50.7834
 31
0.0
  0
LINE
  8
0
 62
     0
 10
251.849
 20
50.7834
 30
0.0
 11
252.65
 21
50.7834
 31
0.0
  0
LINE
  8
0
 62
     0
 10
252.65
 20
50.7834
 30
0.0
 11
252.65
 21
44.9834
 31
0.0
  0
LINE
  8
0
 62
     0
 10
252.65
 20
44.9834
 30
0.0
 11
251.849
 21
44.9834
 31
0.0
  0
LINE
  8
0
 62
     0
 10
251.849
 20
44.9834
 30
0.0
 11
251.849
 21
41.8828
 31
0.0
  0
LINE
  8
0
 62
     0
 10
251.849
 20
41.8828
 30
0.0
 11
252.65
 21
41.8828
 31
0.0
  0
LINE
  8
0
 62
     0
 10
252.65
 20
41.8828
 30
0.0
 11
252.65
 21
40.8838
 31
0.0
  0
LINE
  8
0
 62
     0
 10
252.65
 20
40.8838
 30
0.0
 11
266.65
 21
40.8838
 31
0.0
  0
LINE
  8
0
 62
     0
 10
266.65
 20
40.8838
 30
0.0
 11
266.65
 21
41.8828
 31
0.0
  0
LINE
  8
0
 62
     0
 10
266.65
 20
41.8828
 30
0.0
 11
267.451
 21
41.8828
 31
0.0
  0
LINE
  8
0
 62
     0
 10
267.451
 20
41.8828
 30
0.0
 11
267.451
 21
44.9834
 31
0.0
  0
LINE
  8
0
 62
     0
 10
267.451
 20
44.9834
 30
0.0
 11
266.65
 21
44.9834
 31
0.0
  0
LINE
  8
0
 62
     0
 10
266.65
 20
44.9834
 30
0.0
 11
266.65
 21
50.7834
 31
0.0
  0
LINE
  8
0
 62
     0
 10
266.65
 20
50.7834
 30
0.0
 11
267.451
 21
50.7834
 31
0.0
  0
LINE
  8
0
 62
     0
 10
267.451
 20
50.7834
 30
0.0
 11
267.451
 21
53.8826
 31
0.0
  0
LINE
  8
0
 62
     0
 10
267.451
 20
53.8826
 30
0.0
 11
266.65
 21
53.8826
 31
0.0
  0
LINE
  8
0
 62
     0
 10
266.65
 20
53.8826
 30
0.0
 11
266.65
 21
54.8831
 31
0.0
  0
LINE
  8
0
 62
     0
 10
266.65
 20
54.8831
 30
0.0
 11
252.65
 21
54.8831
 31
0.0
  0
LINE
  8
0
 62
     0
 10
226.457
 20
54.8831
 30
0.0
 11
226.457
 21
53.8826
 31
0.0
  0
LINE
  8
0
 62
     0
 10
226.457
 20
53.8826
 30
0.0
 11
225.656
 21
53.8826
 31
0.0
  0
LINE
  8
0
 62
     0
 10
225.656
 20
53.8826
 30
0.0
 11
225.656
 21
50.7834
 31
0.0
  0
LINE
  8
0
 62
     0
 10
225.656
 20
50.7834
 30
0.0
 11
226.457
 21
50.7834
 31
0.0
  0
LINE
  8
0
 62
     0
 10
226.457
 20
50.7834
 30
0.0
 11
226.457
 21
44.9834
 31
0.0
  0
LINE
  8
0
 62
     0
 10
226.457
 20
44.9834
 30
0.0
 11
225.656
 21
44.9834
 31
0.0
  0
LINE
  8
0
 62
     0
 10
225.656
 20
44.9834
 30
0.0
 11
225.656
 21
41.8828
 31
0.0
  0
LINE
  8
0
 62
     0
 10
225.656
 20
41.8828
 30
0.0
 11
226.457
 21
41.8828
 31
0.0
  0
LINE
  8
0
 62
     0
 10
226.457
 20
41.8828
 30
0.0
 11
226.457
 21
40.8838
 31
0.0
  0
LINE
  8
0
 62
     0
 10
226.457
 20
40.8838
 30
0.0
 11
240.457
 21
40.8838
 31
0.0
  0
LINE
  8
0
 62
     0
 10
240.457
 20
40.8838
 30
0.0
 11
240.457
 21
41.8828
 31
0.0
  0
LINE
  8
0
 62
     0
 10
240.457
 20
41.8828
 30
0.0
 11
241.256
 21
41.8828
 31
0.0
  0
LINE
  8
0
 62
     0
 10
241.256
 20
41.8828
 30
0.0
 11
241.256
 21
44.9834
 31
0.0
  0
LINE
  8
0
 62
     0
 10
241.256
 20
44.9834
 30
0.0
 11
240.457
 21
44.9834
 31
0.0
  0
LINE
  8
0
 62
     0
 10
240.457
 20
44.9834
 30
0.0
 11
240.457
 21
50.7834
 31
0.0
  0
LINE
  8
0
 62
     0
 10
240.457
 20
50.7834
 30
0.0
 11
241.256
 21
50.7834
 31
0.0
  0
LINE
  8
0
 62
     0
 10
241.256
 20
50.7834
 30
0.0
 11
241.256
 21
53.8826
 31
0.0
  0
LINE
  8
0
 62
     0
 10
241.256
 20
53.8826
 30
0.0
 11
240.457
 21
53.8826
 31
0.0
  0
LINE
  8
0
 62
     0
 10
240.457
 20
53.8826
 30
0.0
 11
240.457
 21
54.8831
 31
0.0
  0
LINE
  8
0
 62
     0
 10
240.457
 20
54.8831
 30
0.0
 11
226.457
 21
54.8831
 31
0.0
  0
LINE
  8
0
 62
     0
 10
207.407
 20
54.8831
 30
0.0
 11
207.407
 21
53.8826
 31
0.0
  0
LINE
  8
0
 62
     0
 10
207.407
 20
53.8826
 30
0.0
 11
206.606
 21
53.8826
 31
0.0
  0
LINE
  8
0
 62
     0
 10
206.606
 20
53.8826
 30
0.0
 11
206.606
 21
50.7834
 31
0.0
  0
LINE
  8
0
 62
     0
 10
206.606
 20
50.7834
 30
0.0
 11
207.407
 21
50.7834
 31
0.0
  0
LINE
  8
0
 62
     0
 10
207.407
 20
50.7834
 30
0.0
 11
207.407
 21
44.9834
 31
0.0
  0
LINE
  8
0
 62
     0
 10
207.407
 20
44.9834
 30
0.0
 11
206.606
 21
44.9834
 31
0.0
  0
LINE
  8
0
 62
     0
 10
206.606
 20
44.9834
 30
0.0
 11
206.606
 21
41.8828
 31
0.0
  0
LINE
  8
0
 62
     0
 10
206.606
 20
41.8828
 30
0.0
 11
207.407
 21
41.8828
 31
0.0
  0
LINE
  8
0
 62
     0
 10
207.407
 20
41.8828
 30
0.0
 11
207.407
 21
40.8838
 31
0.0
  0
LINE
  8
0
 62
     0
 10
207.407
 20
40.8838
 30
0.0
 11
221.407
 21
40.8838
 31
0.0
  0
LINE
  8
0
 62
     0
 10
221.407
 20
40.8838
 30
0.0
 11
221.407
 21
41.8828
 31
0.0
  0
LINE
  8
0
 62
     0
 10
221.407
 20
41.8828
 30
0.0
 11
222.206
 21
41.8828
 31
0.0
  0
LINE
  8
0
 62
     0
 10
222.206
 20
41.8828
 30
0.0
 11
222.206
 21
44.9834
 31
0.0
  0
LINE
  8
0
 62
     0
 10
222.206
 20
44.9834
 30
0.0
 11
221.407
 21
44.9834
 31
0.0
  0
LINE
  8
0
 62
     0
 10
221.407
 20
44.9834
 30
0.0
 11
221.407
 21
50.7834
 31
0.0
  0
LINE
  8
0
 62
     0
 10
221.407
 20
50.7834
 30
0.0
 11
222.206
 21
50.7834
 31
0.0
  0
LINE
  8
0
 62
     0
 10
222.206
 20
50.7834
 30
0.0
 11
222.206
 21
53.8826
 31
0.0
  0
LINE
  8
0
 62
     0
 10
222.206
 20
53.8826
 30
0.0
 11
221.407
 21
53.8826
 31
0.0
  0
LINE
  8
0
 62
     0
 10
221.407
 20
53.8826
 30
0.0
 11
221.407
 21
54.8831
 31
0.0
  0
LINE
  8
0
 62
     0
 10
221.407
 20
54.8831
 30
0.0
 11
207.407
 21
54.8831
 31
0.0
  0
LINE
  8
0
 62
     0
 10
188.357
 20
54.8831
 30
0.0
 11
188.357
 21
53.8826
 31
0.0
  0
LINE
  8
0
 62
     0
 10
188.357
 20
53.8826
 30
0.0
 11
187.556
 21
53.8826
 31
0.0
  0
LINE
  8
0
 62
     0
 10
187.556
 20
53.8826
 30
0.0
 11
187.556
 21
50.7834
 31
0.0
  0
LINE
  8
0
 62
     0
 10
187.556
 20
50.7834
 30
0.0
 11
188.357
 21
50.7834
 31
0.0
  0
LINE
  8
0
 62
     0
 10
188.357
 20
50.7834
 30
0.0
 11
188.357
 21
44.9834
 31
0.0
  0
LINE
  8
0
 62
     0
 10
188.357
 20
44.9834
 30
0.0
 11
187.556
 21
44.9834
 31
0.0
  0
LINE
  8
0
 62
     0
 10
187.556
 20
44.9834
 30
0.0
 11
187.556
 21
41.8828
 31
0.0
  0
LINE
  8
0
 62
     0
 10
187.556
 20
41.8828
 30
0.0
 11
188.357
 21
41.8828
 31
0.0
  0
LINE
  8
0
 62
     0
 10
188.357
 20
41.8828
 30
0.0
 11
188.357
 21
40.8838
 31
0.0
  0
LINE
  8
0
 62
     0
 10
188.357
 20
40.8838
 30
0.0
 11
202.357
 21
40.8838
 31
0.0
  0
LINE
  8
0
 62
     0
 10
202.357
 20
40.8838
 30
0.0
 11
202.357
 21
41.8828
 31
0.0
  0
LINE
  8
0
 62
     0
 10
202.357
 20
41.8828
 30
0.0
 11
203.156
 21
41.8828
 31
0.0
  0
LINE
  8
0
 62
     0
 10
203.156
 20
41.8828
 30
0.0
 11
203.156
 21
44.9834
 31
0.0
  0
LINE
  8
0
 62
     0
 10
203.156
 20
44.9834
 30
0.0
 11
202.357
 21
44.9834
 31
0.0
  0
LINE
  8
0
 62
     0
 10
202.357
 20
44.9834
 30
0.0
 11
202.357
 21
50.7834
 31
0.0
  0
LINE
  8
0
 62
     0
 10
202.357
 20
50.7834
 30
0.0
 11
203.156
 21
50.7834
 31
0.0
  0
LINE
  8
0
 62
     0
 10
203.156
 20
50.7834
 30
0.0
 11
203.156
 21
53.8826
 31
0.0
  0
LINE
  8
0
 62
     0
 10
203.156
 20
53.8826
 30
0.0
 11
202.357
 21
53.8826
 31
0.0
  0
LINE
  8
0
 62
     0
 10
202.357
 20
53.8826
 30
0.0
 11
202.357
 21
54.8831
 31
0.0
  0
LINE
  8
0
 62
     0
 10
202.357
 20
54.8831
 30
0.0
 11
188.357
 21
54.8831
 31
0.0
  0
LINE
  8
0
 62
     0
 10
169.307
 20
54.8831
 30
0.0
 11
169.307
 21
53.8826
 31
0.0
  0
LINE
  8
0
 62
     0
 10
169.307
 20
53.8826
 30
0.0
 11
168.506
 21
53.8826
 31
0.0
  0
LINE
  8
0
 62
     0
 10
168.506
 20
53.8826
 30
0.0
 11
168.506
 21
50.7834
 31
0.0
  0
LINE
  8
0
 62
     0
 10
168.506
 20
50.7834
 30
0.0
 11
169.307
 21
50.7834
 31
0.0
  0
LINE
  8
0
 62
     0
 10
169.307
 20
50.7834
 30
0.0
 11
169.307
 21
44.9834
 31
0.0
  0
LINE
  8
0
 62
     0
 10
169.307
 20
44.9834
 30
0.0
 11
168.506
 21
44.9834
 31
0.0
  0
LINE
  8
0
 62
     0
 10
168.506
 20
44.9834
 30
0.0
 11
168.506
 21
41.8828
 31
0.0
  0
LINE
  8
0
 62
     0
 10
168.506
 20
41.8828
 30
0.0
 11
169.307
 21
41.8828
 31
0.0
  0
LINE
  8
0
 62
     0
 10
169.307
 20
41.8828
 30
0.0
 11
169.307
 21
40.8838
 31
0.0
  0
LINE
  8
0
 62
     0
 10
169.307
 20
40.8838
 30
0.0
 11
183.307
 21
40.8838
 31
0.0
  0
LINE
  8
0
 62
     0
 10
183.307
 20
40.8838
 30
0.0
 11
183.307
 21
41.8828
 31
0.0
  0
LINE
  8
0
 62
     0
 10
183.307
 20
41.8828
 30
0.0
 11
184.106
 21
41.8828
 31
0.0
  0
LINE
  8
0
 62
     0
 10
184.106
 20
41.8828
 30
0.0
 11
184.106
 21
44.9834
 31
0.0
  0
LINE
  8
0
 62
     0
 10
184.106
 20
44.9834
 30
0.0
 11
183.307
 21
44.9834
 31
0.0
  0
LINE
  8
0
 62
     0
 10
183.307
 20
44.9834
 30
0.0
 11
183.307
 21
50.7834
 31
0.0
  0
LINE
  8
0
 62
     0
 10
183.307
 20
50.7834
 30
0.0
 11
184.106
 21
50.7834
 31
0.0
  0
LINE
  8
0
 62
     0
 10
184.106
 20
50.7834
 30
0.0
 11
184.106
 21
53.8826
 31
0.0
  0
LINE
  8
0
 62
     0
 10
184.106
 20
53.8826
 30
0.0
 11
183.307
 21
53.8826
 31
0.0
  0
LINE
  8
0
 62
     0
 10
183.307
 20
53.8826
 30
0.0
 11
183.307
 21
54.8831
 31
0.0
  0
LINE
  8
0
 62
     0
 10
183.307
 20
54.8831
 30
0.0
 11
169.307
 21
54.8831
 31
0.0
  0
LINE
  8
0
 62
     0
 10
150.257
 20
54.8831
 30
0.0
 11
150.257
 21
53.8826
 31
0.0
  0
LINE
  8
0
 62
     0
 10
150.257
 20
53.8826
 30
0.0
 11
149.456
 21
53.8826
 31
0.0
  0
LINE
  8
0
 62
     0
 10
149.456
 20
53.8826
 30
0.0
 11
149.456
 21
50.7834
 31
0.0
  0
LINE
  8
0
 62
     0
 10
149.456
 20
50.7834
 30
0.0
 11
150.257
 21
50.7834
 31
0.0
  0
LINE
  8
0
 62
     0
 10
150.257
 20
50.7834
 30
0.0
 11
150.257
 21
44.9834
 31
0.0
  0
LINE
  8
0
 62
     0
 10
150.257
 20
44.9834
 30
0.0
 11
149.456
 21
44.9834
 31
0.0
  0
LINE
  8
0
 62
     0
 10
149.456
 20
44.9834
 30
0.0
 11
149.456
 21
41.8828
 31
0.0
  0
LINE
  8
0
 62
     0
 10
149.456
 20
41.8828
 30
0.0
 11
150.257
 21
41.8828
 31
0.0
  0
LINE
  8
0
 62
     0
 10
150.257
 20
41.8828
 30
0.0
 11
150.257
 21
40.8838
 31
0.0
  0
LINE
  8
0
 62
     0
 10
150.257
 20
40.8838
 30
0.0
 11
164.257
 21
40.8838
 31
0.0
  0
LINE
  8
0
 62
     0
 10
164.257
 20
40.8838
 30
0.0
 11
164.257
 21
41.8828
 31
0.0
  0
LINE
  8
0
 62
     0
 10
164.257
 20
41.8828
 30
0.0
 11
165.056
 21
41.8828
 31
0.0
  0
LINE
  8
0
 62
     0
 10
165.056
 20
41.8828
 30
0.0
 11
165.056
 21
44.9834
 31
0.0
  0
LINE
  8
0
 62
     0
 10
165.056
 20
44.9834
 30
0.0
 11
164.257
 21
44.9834
 31
0.0
  0
LINE
  8
0
 62
     0
 10
164.257
 20
44.9834
 30
0.0
 11
164.257
 21
50.7834
 31
0.0
  0
LINE
  8
0
 62
     0
 10
164.257
 20
50.7834
 30
0.0
 11
165.056
 21
50.7834
 31
0.0
  0
LINE
  8
0
 62
     0
 10
165.056
 20
50.7834
 30
0.0
 11
165.056
 21
53.8826
 31
0.0
  0
LINE
  8
0
 62
     0
 10
165.056
 20
53.8826
 30
0.0
 11
164.257
 21
53.8826
 31
0.0
  0
LINE
  8
0
 62
     0
 10
164.257
 20
53.8826
 30
0.0
 11
164.257
 21
54.8831
 31
0.0
  0
LINE
  8
0
 62
     0
 10
164.257
 20
54.8831
 30
0.0
 11
150.257
 21
54.8831
 31
0.0
  0
LINE
  8
0
 62
     0
 10
102.632
 20
54.8831
 30
0.0
 11
102.632
 21
53.8826
 31
0.0
  0
LINE
  8
0
 62
     0
 10
102.632
 20
53.8826
 30
0.0
 11
101.831
 21
53.8826
 31
0.0
  0
LINE
  8
0
 62
     0
 10
101.831
 20
53.8826
 30
0.0
 11
101.831
 21
50.7834
 31
0.0
  0
LINE
  8
0
 62
     0
 10
101.831
 20
50.7834
 30
0.0
 11
102.632
 21
50.7834
 31
0.0
  0
LINE
  8
0
 62
     0
 10
102.632
 20
50.7834
 30
0.0
 11
102.632
 21
44.9834
 31
0.0
  0
LINE
  8
0
 62
     0
 10
102.632
 20
44.9834
 30
0.0
 11
101.831
 21
44.9834
 31
0.0
  0
LINE
  8
0
 62
     0
 10
101.831
 20
44.9834
 30
0.0
 11
101.831
 21
41.8828
 31
0.0
  0
LINE
  8
0
 62
     0
 10
101.831
 20
41.8828
 30
0.0
 11
102.632
 21
41.8828
 31
0.0
  0
LINE
  8
0
 62
     0
 10
102.632
 20
41.8828
 30
0.0
 11
102.632
 21
40.8838
 31
0.0
  0
LINE
  8
0
 62
     0
 10
102.632
 20
40.8838
 30
0.0
 11
116.632
 21
40.8838
 31
0.0
  0
LINE
  8
0
 62
     0
 10
116.632
 20
40.8838
 30
0.0
 11
116.632
 21
41.8828
 31
0.0
  0
LINE
  8
0
 62
     0
 10
116.632
 20
41.8828
 30
0.0
 11
117.431
 21
41.8828
 31
0.0
  0
LINE
  8
0
 62
     0
 10
117.431
 20
41.8828
 30
0.0
 11
117.431
 21
44.9834
 31
0.0
  0
LINE
  8
0
 62
     0
 10
117.431
 20
44.9834
 30
0.0
 11
116.632
 21
44.9834
 31
0.0
  0
LINE
  8
0
 62
     0
 10
116.632
 20
44.9834
 30
0.0
 11
116.632
 21
50.7834
 31
0.0
  0
LINE
  8
0
 62
     0
 10
116.632
 20
50.7834
 30
0.0
 11
117.431
 21
50.7834
 31
0.0
  0
LINE
  8
0
 62
     0
 10
117.431
 20
50.7834
 30
0.0
 11
117.431
 21
53.8826
 31
0.0
  0
LINE
  8
0
 62
     0
 10
117.431
 20
53.8826
 30
0.0
 11
116.632
 21
53.8826
 31
0.0
  0
LINE
  8
0
 62
     0
 10
116.632
 20
53.8826
 30
0.0
 11
116.632
 21
54.8831
 31
0.0
  0
LINE
  8
0
 62
     0
 10
116.632
 20
54.8831
 30
0.0
 11
102.632
 21
54.8831
 31
0.0
  0
LINE
  8
0
 62
     0
 10
83.5822
 20
54.8831
 30
0.0
 11
83.5822
 21
53.8826
 31
0.0
  0
LINE
  8
0
 62
     0
 10
83.5822
 20
53.8826
 30
0.0
 11
82.7814
 21
53.8826
 31
0.0
  0
LINE
  8
0
 62
     0
 10
82.7814
 20
53.8826
 30
0.0
 11
82.7814
 21
50.7834
 31
0.0
  0
LINE
  8
0
 62
     0
 10
82.7814
 20
50.7834
 30
0.0
 11
83.5822
 21
50.7834
 31
0.0
  0
LINE
  8
0
 62
     0
 10
83.5822
 20
50.7834
 30
0.0
 11
83.5822
 21
44.9834
 31
0.0
  0
LINE
  8
0
 62
     0
 10
83.5822
 20
44.9834
 30
0.0
 11
82.7814
 21
44.9834
 31
0.0
  0
LINE
  8
0
 62
     0
 10
82.7814
 20
44.9834
 30
0.0
 11
82.7814
 21
41.8828
 31
0.0
  0
LINE
  8
0
 62
     0
 10
82.7814
 20
41.8828
 30
0.0
 11
83.5822
 21
41.8828
 31
0.0
  0
LINE
  8
0
 62
     0
 10
83.5822
 20
41.8828
 30
0.0
 11
83.5822
 21
40.8838
 31
0.0
  0
LINE
  8
0
 62
     0
 10
83.5822
 20
40.8838
 30
0.0
 11
97.5815
 21
40.8838
 31
0.0
  0
LINE
  8
0
 62
     0
 10
97.5815
 20
40.8838
 30
0.0
 11
97.5815
 21
41.8828
 31
0.0
  0
LINE
  8
0
 62
     0
 10
97.5815
 20
41.8828
 30
0.0
 11
98.3809
 21
41.8828
 31
0.0
  0
LINE
  8
0
 62
     0
 10
98.3809
 20
41.8828
 30
0.0
 11
98.3809
 21
44.9834
 31
0.0
  0
LINE
  8
0
 62
     0
 10
98.3809
 20
44.9834
 30
0.0
 11
97.5815
 21
44.9834
 31
0.0
  0
LINE
  8
0
 62
     0
 10
97.5815
 20
44.9834
 30
0.0
 11
97.5815
 21
50.7834
 31
0.0
  0
LINE
  8
0
 62
     0
 10
97.5815
 20
50.7834
 30
0.0
 11
98.3809
 21
50.7834
 31
0.0
  0
LINE
  8
0
 62
     0
 10
98.3809
 20
50.7834
 30
0.0
 11
98.3809
 21
53.8826
 31
0.0
  0
LINE
  8
0
 62
     0
 10
98.3809
 20
53.8826
 30
0.0
 11
97.5815
 21
53.8826
 31
0.0
  0
LINE
  8
0
 62
     0
 10
97.5815
 20
53.8826
 30
0.0
 11
97.5815
 21
54.8831
 31
0.0
  0
LINE
  8
0
 62
     0
 10
97.5815
 20
54.8831
 30
0.0
 11
83.5822
 21
54.8831
 31
0.0
  0
LINE
  8
0
 62
     0
 10
64.5322
 20
54.8831
 30
0.0
 11
64.5322
 21
53.8826
 31
0.0
  0
LINE
  8
0
 62
     0
 10
64.5322
 20
53.8826
 30
0.0
 11
63.7314
 21
53.8826
 31
0.0
  0
LINE
  8
0
 62
     0
 10
63.7314
 20
53.8826
 30
0.0
 11
63.7314
 21
50.7834
 31
0.0
  0
LINE
  8
0
 62
     0
 10
63.7314
 20
50.7834
 30
0.0
 11
64.5322
 21
50.7834
 31
0.0
  0
LINE
  8
0
 62
     0
 10
64.5322
 20
50.7834
 30
0.0
 11
64.5322
 21
44.9834
 31
0.0
  0
LINE
  8
0
 62
     0
 10
64.5322
 20
44.9834
 30
0.0
 11
63.7314
 21
44.9834
 31
0.0
  0
LINE
  8
0
 62
     0
 10
63.7314
 20
44.9834
 30
0.0
 11
63.7314
 21
41.8828
 31
0.0
  0
LINE
  8
0
 62
     0
 10
63.7314
 20
41.8828
 30
0.0
 11
64.5322
 21
41.8828
 31
0.0
  0
LINE
  8
0
 62
     0
 10
64.5322
 20
41.8828
 30
0.0
 11
64.5322
 21
40.8838
 31
0.0
  0
LINE
  8
0
 62
     0
 10
64.5322
 20
40.8838
 30
0.0
 11
78.5315
 21
40.8838
 31
0.0
  0
LINE
  8
0
 62
     0
 10
78.5315
 20
40.8838
 30
0.0
 11
78.5315
 21
41.8828
 31
0.0
  0
LINE
  8
0
 62
     0
 10
78.5315
 20
41.8828
 30
0.0
 11
79.3309
 21
41.8828
 31
0.0
  0
LINE
  8
0
 62
     0
 10
79.3309
 20
41.8828
 30
0.0
 11
79.3309
 21
44.9834
 31
0.0
  0
LINE
  8
0
 62
     0
 10
79.3309
 20
44.9834
 30
0.0
 11
78.5315
 21
44.9834
 31
0.0
  0
LINE
  8
0
 62
     0
 10
78.5315
 20
44.9834
 30
0.0
 11
78.5315
 21
50.7834
 31
0.0
  0
LINE
  8
0
 62
     0
 10
78.5315
 20
50.7834
 30
0.0
 11
79.3309
 21
50.7834
 31
0.0
  0
LINE
  8
0
 62
     0
 10
79.3309
 20
50.7834
 30
0.0
 11
79.3309
 21
53.8826
 31
0.0
  0
LINE
  8
0
 62
     0
 10
79.3309
 20
53.8826
 30
0.0
 11
78.5315
 21
53.8826
 31
0.0
  0
LINE
  8
0
 62
     0
 10
78.5315
 20
53.8826
 30
0.0
 11
78.5315
 21
54.8831
 31
0.0
  0
LINE
  8
0
 62
     0
 10
78.5315
 20
54.8831
 30
0.0
 11
64.5322
 21
54.8831
 31
0.0
  0
LINE
  8
0
 62
     0
 10
45.4822
 20
54.8831
 30
0.0
 11
45.4822
 21
53.8826
 31
0.0
  0
LINE
  8
0
 62
     0
 10
45.4822
 20
53.8826
 30
0.0
 11
44.6814
 21
53.8826
 31
0.0
  0
LINE
  8
0
 62
     0
 10
44.6814
 20
53.8826
 30
0.0
 11
44.6814
 21
50.7834
 31
0.0
  0
LINE
  8
0
 62
     0
 10
44.6814
 20
50.7834
 30
0.0
 11
45.4822
 21
50.7834
 31
0.0
  0
LINE
  8
0
 62
     0
 10
45.4822
 20
50.7834
 30
0.0
 11
45.4822
 21
44.9834
 31
0.0
  0
LINE
  8
0
 62
     0
 10
45.4822
 20
44.9834
 30
0.0
 11
44.6814
 21
44.9834
 31
0.0
  0
LINE
  8
0
 62
     0
 10
44.6814
 20
44.9834
 30
0.0
 11
44.6814
 21
41.8828
 31
0.0
  0
LINE
  8
0
 62
     0
 10
44.6814
 20
41.8828
 30
0.0
 11
45.4822
 21
41.8828
 31
0.0
  0
LINE
  8
0
 62
     0
 10
45.4822
 20
41.8828
 30
0.0
 11
45.4822
 21
40.8838
 31
0.0
  0
LINE
  8
0
 62
     0
 10
45.4822
 20
40.8838
 30
0.0
 11
59.4815
 21
40.8838
 31
0.0
  0
LINE
  8
0
 62
     0
 10
59.4815
 20
40.8838
 30
0.0
 11
59.4815
 21
41.8828
 31
0.0
  0
LINE
  8
0
 62
     0
 10
59.4815
 20
41.8828
 30
0.0
 11
60.2809
 21
41.8828
 31
0.0
  0
LINE
  8
0
 62
     0
 10
60.2809
 20
41.8828
 30
0.0
 11
60.2809
 21
44.9834
 31
0.0
  0
LINE
  8
0
 62
     0
 10
60.2809
 20
44.9834
 30
0.0
 11
59.4815
 21
44.9834
 31
0.0
  0
LINE
  8
0
 62
     0
 10
59.4815
 20
44.9834
 30
0.0
 11
59.4815
 21
50.7834
 31
0.0
  0
LINE
  8
0
 62
     0
 10
59.4815
 20
50.7834
 30
0.0
 11
60.2809
 21
50.7834
 31
0.0
  0
LINE
  8
0
 62
     0
 10
60.2809
 20
50.7834
 30
0.0
 11
60.2809
 21
53.8826
 31
0.0
  0
LINE
  8
0
 62
     0
 10
60.2809
 20
53.8826
 30
0.0
 11
59.4815
 21
53.8826
 31
0.0
  0
LINE
  8
0
 62
     0
 10
59.4815
 20
53.8826
 30
0.0
 11
59.4815
 21
54.8831
 31
0.0
  0
LINE
  8
0
 62
     0
 10
59.4815
 20
54.8831
 30
0.0
 11
45.4822
 21
54.8831
 31
0.0
  0
LINE
  8
0
 62
     0
 10
26.4322
 20
54.8831
 30
0.0
 11
26.4322
 21
53.8826
 31
0.0
  0
LINE
  8
0
 62
     0
 10
26.4322
 20
53.8826
 30
0.0
 11
25.6315
 21
53.8826
 31
0.0
  0
LINE
  8
0
 62
     0
 10
25.6315
 20
53.8826
 30
0.0
 11
25.6315
 21
50.7834
 31
0.0
  0
LINE
  8
0
 62
     0
 10
25.6315
 20
50.7834
 30
0.0
 11
26.4322
 21
50.7834
 31
0.0
  0
LINE
  8
0
 62
     0
 10
26.4322
 20
50.7834
 30
0.0
 11
26.4322
 21
44.9834
 31
0.0
  0
LINE
  8
0
 62
     0
 10
26.4322
 20
44.9834
 30
0.0
 11
25.6315
 21
44.9834
 31
0.0
  0
LINE
  8
0
 62
     0
 10
25.6315
 20
44.9834
 30
0.0
 11
25.6315
 21
41.8828
 31
0.0
  0
LINE
  8
0
 62
     0
 10
25.6315
 20
41.8828
 30
0.0
 11
26.4322
 21
41.8828
 31
0.0
  0
LINE
  8
0
 62
     0
 10
26.4322
 20
41.8828
 30
0.0
 11
26.4322
 21
40.8838
 31
0.0
  0
LINE
  8
0
 62
     0
 10
26.4322
 20
40.8838
 30
0.0
 11
40.4315
 21
40.8838
 31
0.0
  0
LINE
  8
0
 62
     0
 10
40.4315
 20
40.8838
 30
0.0
 11
40.4315
 21
41.8828
 31
0.0
  0
LINE
  8
0
 62
     0
 10
40.4315
 20
41.8828
 30
0.0
 11
41.2309
 21
41.8828
 31
0.0
  0
LINE
  8
0
 62
     0
 10
41.2309
 20
41.8828
 30
0.0
 11
41.2309
 21
44.9834
 31
0.0
  0
LINE
  8
0
 62
     0
 10
41.2309
 20
44.9834
 30
0.0
 11
40.4315
 21
44.9834
 31
0.0
  0
LINE
  8
0
 62
     0
 10
40.4315
 20
44.9834
 30
0.0
 11
40.4315
 21
50.7834
 31
0.0
  0
LINE
  8
0
 62
     0
 10
40.4315
 20
50.7834
 30
0.0
 11
41.2309
 21
50.7834
 31
0.0
  0
LINE
  8
0
 62
     0
 10
41.2309
 20
50.7834
 30
0.0
 11
41.2309
 21
53.8826
 31
0.0
  0
LINE
  8
0
 62
     0
 10
41.2309
 20
53.8826
 30
0.0
 11
40.4315
 21
53.8826
 31
0.0
  0
LINE
  8
0
 62
     0
 10
40.4315
 20
53.8826
 30
0.0
 11
40.4315
 21
54.8831
 31
0.0
  0
LINE
  8
0
 62
     0
 10
40.4315
 20
54.8831
 30
0.0
 11
26.4322
 21
54.8831
 31
0.0
  0
LINE
  8
0
 62
     0
 10
5.00091
 20
54.8831
 30
0.0
 11
5.00091
 21
53.8826
 31
0.0
  0
LINE
  8
0
 62
     0
 10
5.00091
 20
53.8826
 30
0.0
 11
4.20028
 21
53.8826
 31
0.0
  0
LINE
  8
0
 62
     0
 10
4.20028
 20
53.8826
 30
0.0
 11
4.20028
 21
50.7834
 31
0.0
  0
LINE
  8
0
 62
     0
 10
4.20028
 20
50.7834
 30
0.0
 11
5.00091
 21
50.7834
 31
0.0
  0
LINE
  8
0
 62
     0
 10
5.00091
 20
50.7834
 30
0.0
 11
5.00091
 21
44.9834
 31
0.0
  0
LINE
  8
0
 62
     0
 10
5.00091
 20
44.9834
 30
0.0
 11
4.20028
 21
44.9834
 31
0.0
  0
LINE
  8
0
 62
     0
 10
4.20028
 20
44.9834
 30
0.0
 11
4.20028
 21
41.8828
 31
0.0
  0
LINE
  8
0
 62
     0
 10
4.20028
 20
41.8828
 30
0.0
 11
5.00091
 21
41.8828
 31
0.0
  0
LINE
  8
0
 62
     0
 10
5.00091
 20
41.8828
 30
0.0
 11
5.00091
 21
40.8838
 31
0.0
  0
LINE
  8
0
 62
     0
 10
5.00091
 20
40.8838
 30
0.0
 11
19.0004
 21
40.8838
 31
0.0
  0
LINE
  8
0
 62
     0
 10
19.0004
 20
40.8838
 30
0.0
 11
19.0004
 21
41.8828
 31
0.0
  0
LINE
  8
0
 62
     0
 10
19.0004
 20
41.8828
 30
0.0
 11
19.801
 21
41.8828
 31
0.0
  0
LINE
  8
0
 62
     0
 10
19.801
 20
41.8828
 30
0.0
 11
19.801
 21
44.9834
 31
0.0
  0
LINE
  8
0
 62
     0
 10
19.801
 20
44.9834
 30
0.0
 11
19.0004
 21
44.9834
 31
0.0
  0
LINE
  8
0
 62
     0
 10
19.0004
 20
44.9834
 30
0.0
 11
19.0004
 21
50.7834
 31
0.0
  0
LINE
  8
0
 62
     0
 10
19.0004
 20
50.7834
 30
0.0
 11
19.801
 21
50.7834
 31
0.0
  0
LINE
  8
0
 62
     0
 10
19.801
 20
50.7834
 30
0.0
 11
19.801
 21
53.8826
 31
0.0
  0
LINE
  8
0
 62
     0
 10
19.801
 20
53.8826
 30
0.0
 11
19.0004
 21
53.8826
 31
0.0
  0
LINE
  8
0
 62
     0
 10
19.0004
 20
53.8826
 30
0.0
 11
19.0004
 21
54.8831
 31
0.0
  0
LINE
  8
0
 62
     0
 10
19.0004
 20
54.8831
 30
0.0
 11
5.00091
 21
54.8831
 31
0.0
  0
LINE
  8
0
 62
     0
 10
250.27
 20
73.9331
 30
0.0
 11
250.27
 21
72.9326
 31
0.0
  0
LINE
  8
0
 62
     0
 10
250.27
 20
72.9326
 30
0.0
 11
249.469
 21
72.9326
 31
0.0
  0
LINE
  8
0
 62
     0
 10
249.469
 20
72.9326
 30
0.0
 11
249.469
 21
69.8334
 31
0.0
  0
LINE
  8
0
 62
     0
 10
249.469
 20
69.8334
 30
0.0
 11
250.27
 21
69.8334
 31
0.0
  0
LINE
  8
0
 62
     0
 10
250.27
 20
69.8334
 30
0.0
 11
250.27
 21
69.2326
 31
0.0
  0
LINE
  8
0
 62
     0
 10
250.27
 20
69.2326
 30
0.0
 11
248.744
 21
69.2326
 31
0.0
  0
LINE
  8
0
 62
     0
 10
248.744
 20
69.2326
 30
0.0
 11
248.744
 21
72.4627
 31
0.0
  0
LINE
  8
0
 62
     0
 10
248.744
 20
72.4627
 30
0.0
 11
247.019
 21
72.4627
 31
0.0
  0
LINE
  8
0
 62
     0
 10
247.019
 20
72.4627
 30
0.0
 11
247.019
 21
73.3848
 31
0.0
  0
LINE
  8
0
 62
     0
 10
247.019
 20
73.3848
 30
0.0
 11
243.72
 21
73.3848
 31
0.0
  0
LINE
  8
0
 62
     0
 10
243.72
 20
73.3848
 30
0.0
 11
243.72
 21
72.4627
 31
0.0
  0
LINE
  8
0
 62
     0
 10
243.72
 20
72.4627
 30
0.0
 11
241.995
 21
72.4627
 31
0.0
  0
LINE
  8
0
 62
     0
 10
241.995
 20
72.4627
 30
0.0
 11
241.995
 21
69.2326
 31
0.0
  0
LINE
  8
0
 62
     0
 10
241.995
 20
69.2326
 30
0.0
 11
241.169
 21
69.2326
 31
0.0
  0
LINE
  8
0
 62
     0
 10
241.169
 20
69.2326
 30
0.0
 11
241.169
 21
66.4337
 31
0.0
  0
LINE
  8
0
 62
     0
 10
241.169
 20
66.4337
 30
0.0
 11
241.995
 21
66.4337
 31
0.0
  0
LINE
  8
0
 62
     0
 10
241.995
 20
66.4337
 30
0.0
 11
241.995
 21
60.1638
 31
0.0
  0
LINE
  8
0
 62
     0
 10
241.995
 20
60.1638
 30
0.0
 11
243.72
 21
60.1638
 31
0.0
  0
LINE
  8
0
 62
     0
 10
243.72
 20
60.1638
 30
0.0
 11
243.72
 21
59.1827
 31
0.0
  0
LINE
  8
0
 62
     0
 10
243.72
 20
59.1827
 30
0.0
 11
247.019
 21
59.1827
 31
0.0
  0
LINE
  8
0
 62
     0
 10
247.019
 20
59.1827
 30
0.0
 11
247.019
 21
60.1638
 31
0.0
  0
LINE
  8
0
 62
     0
 10
247.019
 20
60.1638
 30
0.0
 11
248.744
 21
60.1638
 31
0.0
  0
LINE
  8
0
 62
     0
 10
248.744
 20
60.1638
 30
0.0
 11
248.744
 21
64.6328
 31
0.0
  0
LINE
  8
0
 62
     0
 10
248.744
 20
64.6328
 30
0.0
 11
250.27
 21
64.6328
 31
0.0
  0
LINE
  8
0
 62
     0
 10
250.27
 20
64.6328
 30
0.0
 11
250.27
 21
64.0334
 31
0.0
  0
LINE
  8
0
 62
     0
 10
250.27
 20
64.0334
 30
0.0
 11
249.469
 21
64.0334
 31
0.0
  0
LINE
  8
0
 62
     0
 10
249.469
 20
64.0334
 30
0.0
 11
249.469
 21
60.9328
 31
0.0
  0
LINE
  8
0
 62
     0
 10
249.469
 20
60.9328
 30
0.0
 11
250.27
 21
60.9328
 31
0.0
  0
LINE
  8
0
 62
     0
 10
250.27
 20
60.9328
 30
0.0
 11
250.27
 21
59.9338
 31
0.0
  0
LINE
  8
0
 62
     0
 10
250.27
 20
59.9338
 30
0.0
 11
264.269
 21
59.9338
 31
0.0
  0
LINE
  8
0
 62
     0
 10
264.269
 20
59.9338
 30
0.0
 11
264.269
 21
60.9328
 31
0.0
  0
LINE
  8
0
 62
     0
 10
264.269
 20
60.9328
 30
0.0
 11
265.07
 21
60.9328
 31
0.0
  0
LINE
  8
0
 62
     0
 10
265.07
 20
60.9328
 30
0.0
 11
265.07
 21
64.0334
 31
0.0
  0
LINE
  8
0
 62
     0
 10
265.07
 20
64.0334
 30
0.0
 11
264.269
 21
64.0334
 31
0.0
  0
LINE
  8
0
 62
     0
 10
264.269
 20
64.0334
 30
0.0
 11
264.269
 21
64.6328
 31
0.0
  0
LINE
  8
0
 62
     0
 10
264.269
 20
64.6328
 30
0.0
 11
265.795
 21
64.6328
 31
0.0
  0
LINE
  8
0
 62
     0
 10
265.795
 20
64.6328
 30
0.0
 11
265.795
 21
60.1638
 31
0.0
  0
LINE
  8
0
 62
     0
 10
265.795
 20
60.1638
 30
0.0
 11
267.52
 21
60.1638
 31
0.0
  0
LINE
  8
0
 62
     0
 10
267.52
 20
60.1638
 30
0.0
 11
267.52
 21
59.1827
 31
0.0
  0
LINE
  8
0
 62
     0
 10
267.52
 20
59.1827
 30
0.0
 11
270.819
 21
59.1827
 31
0.0
  0
LINE
  8
0
 62
     0
 10
270.819
 20
59.1827
 30
0.0
 11
270.819
 21
60.1638
 31
0.0
  0
LINE
  8
0
 62
     0
 10
270.819
 20
60.1638
 30
0.0
 11
272.544
 21
60.1638
 31
0.0
  0
LINE
  8
0
 62
     0
 10
272.544
 20
60.1638
 30
0.0
 11
272.544
 21
66.4337
 31
0.0
  0
LINE
  8
0
 62
     0
 10
272.544
 20
66.4337
 30
0.0
 11
273.37
 21
66.4337
 31
0.0
  0
LINE
  8
0
 62
     0
 10
273.37
 20
66.4337
 30
0.0
 11
273.37
 21
69.2326
 31
0.0
  0
LINE
  8
0
 62
     0
 10
273.37
 20
69.2326
 30
0.0
 11
272.544
 21
69.2326
 31
0.0
  0
LINE
  8
0
 62
     0
 10
272.544
 20
69.2326
 30
0.0
 11
272.544
 21
72.4627
 31
0.0
  0
LINE
  8
0
 62
     0
 10
272.544
 20
72.4627
 30
0.0
 11
270.819
 21
72.4627
 31
0.0
  0
LINE
  8
0
 62
     0
 10
270.819
 20
72.4627
 30
0.0
 11
270.819
 21
73.3848
 31
0.0
  0
LINE
  8
0
 62
     0
 10
270.819
 20
73.3848
 30
0.0
 11
267.52
 21
73.3848
 31
0.0
  0
LINE
  8
0
 62
     0
 10
267.52
 20
73.3848
 30
0.0
 11
267.52
 21
72.4627
 31
0.0
  0
LINE
  8
0
 62
     0
 10
267.52
 20
72.4627
 30
0.0
 11
265.795
 21
72.4627
 31
0.0
  0
LINE
  8
0
 62
     0
 10
265.795
 20
72.4627
 30
0.0
 11
265.795
 21
69.2326
 31
0.0
  0
LINE
  8
0
 62
     0
 10
265.795
 20
69.2326
 30
0.0
 11
264.269
 21
69.2326
 31
0.0
  0
LINE
  8
0
 62
     0
 10
264.269
 20
69.2326
 30
0.0
 11
264.269
 21
69.8334
 31
0.0
  0
LINE
  8
0
 62
     0
 10
264.269
 20
69.8334
 30
0.0
 11
265.07
 21
69.8334
 31
0.0
  0
LINE
  8
0
 62
     0
 10
265.07
 20
69.8334
 30
0.0
 11
265.07
 21
72.9326
 31
0.0
  0
LINE
  8
0
 62
     0
 10
265.07
 20
72.9326
 30
0.0
 11
264.269
 21
72.9326
 31
0.0
  0
LINE
  8
0
 62
     0
 10
264.269
 20
72.9326
 30
0.0
 11
264.269
 21
73.9331
 31
0.0
  0
LINE
  8
0
 62
     0
 10
264.269
 20
73.9331
 30
0.0
 11
250.27
 21
73.9331
 31
0.0
  0
LINE
  8
0
 62
     0
 10
221.695
 20
73.9331
 30
0.0
 11
221.695
 21
72.9326
 31
0.0
  0
LINE
  8
0
 62
     0
 10
221.695
 20
72.9326
 30
0.0
 11
220.894
 21
72.9326
 31
0.0
  0
LINE
  8
0
 62
     0
 10
220.894
 20
72.9326
 30
0.0
 11
220.894
 21
69.8334
 31
0.0
  0
LINE
  8
0
 62
     0
 10
220.894
 20
69.8334
 30
0.0
 11
221.695
 21
69.8334
 31
0.0
  0
LINE
  8
0
 62
     0
 10
221.695
 20
69.8334
 30
0.0
 11
221.695
 21
64.0334
 31
0.0
  0
LINE
  8
0
 62
     0
 10
221.695
 20
64.0334
 30
0.0
 11
220.894
 21
64.0334
 31
0.0
  0
LINE
  8
0
 62
     0
 10
220.894
 20
64.0334
 30
0.0
 11
220.894
 21
60.9328
 31
0.0
  0
LINE
  8
0
 62
     0
 10
220.894
 20
60.9328
 30
0.0
 11
221.695
 21
60.9328
 31
0.0
  0
LINE
  8
0
 62
     0
 10
221.695
 20
60.9328
 30
0.0
 11
221.695
 21
59.9338
 31
0.0
  0
LINE
  8
0
 62
     0
 10
221.695
 20
59.9338
 30
0.0
 11
235.694
 21
59.9338
 31
0.0
  0
LINE
  8
0
 62
     0
 10
235.694
 20
59.9338
 30
0.0
 11
235.694
 21
60.9328
 31
0.0
  0
LINE
  8
0
 62
     0
 10
235.694
 20
60.9328
 30
0.0
 11
236.495
 21
60.9328
 31
0.0
  0
LINE
  8
0
 62
     0
 10
236.495
 20
60.9328
 30
0.0
 11
236.495
 21
64.0334
 31
0.0
  0
LINE
  8
0
 62
     0
 10
236.495
 20
64.0334
 30
0.0
 11
235.694
 21
64.0334
 31
0.0
  0
LINE
  8
0
 62
     0
 10
235.694
 20
64.0334
 30
0.0
 11
235.694
 21
69.8334
 31
0.0
  0
LINE
  8
0
 62
     0
 10
235.694
 20
69.8334
 30
0.0
 11
236.495
 21
69.8334
 31
0.0
  0
LINE
  8
0
 62
     0
 10
236.495
 20
69.8334
 30
0.0
 11
236.495
 21
72.9326
 31
0.0
  0
LINE
  8
0
 62
     0
 10
236.495
 20
72.9326
 30
0.0
 11
235.694
 21
72.9326
 31
0.0
  0
LINE
  8
0
 62
     0
 10
235.694
 20
72.9326
 30
0.0
 11
235.694
 21
73.9331
 31
0.0
  0
LINE
  8
0
 62
     0
 10
235.694
 20
73.9331
 30
0.0
 11
221.695
 21
73.9331
 31
0.0
  0
LINE
  8
0
 62
     0
 10
202.645
 20
73.9331
 30
0.0
 11
202.645
 21
72.9326
 31
0.0
  0
LINE
  8
0
 62
     0
 10
202.645
 20
72.9326
 30
0.0
 11
201.844
 21
72.9326
 31
0.0
  0
LINE
  8
0
 62
     0
 10
201.844
 20
72.9326
 30
0.0
 11
201.844
 21
69.8334
 31
0.0
  0
LINE
  8
0
 62
     0
 10
201.844
 20
69.8334
 30
0.0
 11
202.645
 21
69.8334
 31
0.0
  0
LINE
  8
0
 62
     0
 10
202.645
 20
69.8334
 30
0.0
 11
202.645
 21
64.0334
 31
0.0
  0
LINE
  8
0
 62
     0
 10
202.645
 20
64.0334
 30
0.0
 11
201.844
 21
64.0334
 31
0.0
  0
LINE
  8
0
 62
     0
 10
201.844
 20
64.0334
 30
0.0
 11
201.844
 21
60.9328
 31
0.0
  0
LINE
  8
0
 62
     0
 10
201.844
 20
60.9328
 30
0.0
 11
202.645
 21
60.9328
 31
0.0
  0
LINE
  8
0
 62
     0
 10
202.645
 20
60.9328
 30
0.0
 11
202.645
 21
59.9338
 31
0.0
  0
LINE
  8
0
 62
     0
 10
202.645
 20
59.9338
 30
0.0
 11
216.644
 21
59.9338
 31
0.0
  0
LINE
  8
0
 62
     0
 10
216.644
 20
59.9338
 30
0.0
 11
216.644
 21
60.9328
 31
0.0
  0
LINE
  8
0
 62
     0
 10
216.644
 20
60.9328
 30
0.0
 11
217.445
 21
60.9328
 31
0.0
  0
LINE
  8
0
 62
     0
 10
217.445
 20
60.9328
 30
0.0
 11
217.445
 21
64.0334
 31
0.0
  0
LINE
  8
0
 62
     0
 10
217.445
 20
64.0334
 30
0.0
 11
216.644
 21
64.0334
 31
0.0
  0
LINE
  8
0
 62
     0
 10
216.644
 20
64.0334
 30
0.0
 11
216.644
 21
69.8334
 31
0.0
  0
LINE
  8
0
 62
     0
 10
216.644
 20
69.8334
 30
0.0
 11
217.445
 21
69.8334
 31
0.0
  0
LINE
  8
0
 62
     0
 10
217.445
 20
69.8334
 30
0.0
 11
217.445
 21
72.9326
 31
0.0
  0
LINE
  8
0
 62
     0
 10
217.445
 20
72.9326
 30
0.0
 11
216.644
 21
72.9326
 31
0.0
  0
LINE
  8
0
 62
     0
 10
216.644
 20
72.9326
 30
0.0
 11
216.644
 21
73.9331
 31
0.0
  0
LINE
  8
0
 62
     0
 10
216.644
 20
73.9331
 30
0.0
 11
202.645
 21
73.9331
 31
0.0
  0
LINE
  8
0
 62
     0
 10
183.595
 20
73.9331
 30
0.0
 11
183.595
 21
72.9326
 31
0.0
  0
LINE
  8
0
 62
     0
 10
183.595
 20
72.9326
 30
0.0
 11
182.794
 21
72.9326
 31
0.0
  0
LINE
  8
0
 62
     0
 10
182.794
 20
72.9326
 30
0.0
 11
182.794
 21
69.8334
 31
0.0
  0
LINE
  8
0
 62
     0
 10
182.794
 20
69.8334
 30
0.0
 11
183.595
 21
69.8334
 31
0.0
  0
LINE
  8
0
 62
     0
 10
183.595
 20
69.8334
 30
0.0
 11
183.595
 21
64.0334
 31
0.0
  0
LINE
  8
0
 62
     0
 10
183.595
 20
64.0334
 30
0.0
 11
182.794
 21
64.0334
 31
0.0
  0
LINE
  8
0
 62
     0
 10
182.794
 20
64.0334
 30
0.0
 11
182.794
 21
60.9328
 31
0.0
  0
LINE
  8
0
 62
     0
 10
182.794
 20
60.9328
 30
0.0
 11
183.595
 21
60.9328
 31
0.0
  0
LINE
  8
0
 62
     0
 10
183.595
 20
60.9328
 30
0.0
 11
183.595
 21
59.9338
 31
0.0
  0
LINE
  8
0
 62
     0
 10
183.595
 20
59.9338
 30
0.0
 11
197.594
 21
59.9338
 31
0.0
  0
LINE
  8
0
 62
     0
 10
197.594
 20
59.9338
 30
0.0
 11
197.594
 21
60.9328
 31
0.0
  0
LINE
  8
0
 62
     0
 10
197.594
 20
60.9328
 30
0.0
 11
198.395
 21
60.9328
 31
0.0
  0
LINE
  8
0
 62
     0
 10
198.395
 20
60.9328
 30
0.0
 11
198.395
 21
64.0334
 31
0.0
  0
LINE
  8
0
 62
     0
 10
198.395
 20
64.0334
 30
0.0
 11
197.594
 21
64.0334
 31
0.0
  0
LINE
  8
0
 62
     0
 10
197.594
 20
64.0334
 30
0.0
 11
197.594
 21
69.8334
 31
0.0
  0
LINE
  8
0
 62
     0
 10
197.594
 20
69.8334
 30
0.0
 11
198.395
 21
69.8334
 31
0.0
  0
LINE
  8
0
 62
     0
 10
198.395
 20
69.8334
 30
0.0
 11
198.395
 21
72.9326
 31
0.0
  0
LINE
  8
0
 62
     0
 10
198.395
 20
72.9326
 30
0.0
 11
197.594
 21
72.9326
 31
0.0
  0
LINE
  8
0
 62
     0
 10
197.594
 20
72.9326
 30
0.0
 11
197.594
 21
73.9331
 31
0.0
  0
LINE
  8
0
 62
     0
 10
197.594
 20
73.9331
 30
0.0
 11
183.595
 21
73.9331
 31
0.0
  0
LINE
  8
0
 62
     0
 10
164.545
 20
73.9331
 30
0.0
 11
164.545
 21
72.9326
 31
0.0
  0
LINE
  8
0
 62
     0
 10
164.545
 20
72.9326
 30
0.0
 11
163.744
 21
72.9326
 31
0.0
  0
LINE
  8
0
 62
     0
 10
163.744
 20
72.9326
 30
0.0
 11
163.744
 21
69.8334
 31
0.0
  0
LINE
  8
0
 62
     0
 10
163.744
 20
69.8334
 30
0.0
 11
164.545
 21
69.8334
 31
0.0
  0
LINE
  8
0
 62
     0
 10
164.545
 20
69.8334
 30
0.0
 11
164.545
 21
64.0334
 31
0.0
  0
LINE
  8
0
 62
     0
 10
164.545
 20
64.0334
 30
0.0
 11
163.744
 21
64.0334
 31
0.0
  0
LINE
  8
0
 62
     0
 10
163.744
 20
64.0334
 30
0.0
 11
163.744
 21
60.9328
 31
0.0
  0
LINE
  8
0
 62
     0
 10
163.744
 20
60.9328
 30
0.0
 11
164.545
 21
60.9328
 31
0.0
  0
LINE
  8
0
 62
     0
 10
164.545
 20
60.9328
 30
0.0
 11
164.545
 21
59.9338
 31
0.0
  0
LINE
  8
0
 62
     0
 10
164.545
 20
59.9338
 30
0.0
 11
178.544
 21
59.9338
 31
0.0
  0
LINE
  8
0
 62
     0
 10
178.544
 20
59.9338
 30
0.0
 11
178.544
 21
60.9328
 31
0.0
  0
LINE
  8
0
 62
     0
 10
178.544
 20
60.9328
 30
0.0
 11
179.345
 21
60.9328
 31
0.0
  0
LINE
  8
0
 62
     0
 10
179.345
 20
60.9328
 30
0.0
 11
179.345
 21
64.0334
 31
0.0
  0
LINE
  8
0
 62
     0
 10
179.345
 20
64.0334
 30
0.0
 11
178.544
 21
64.0334
 31
0.0
  0
LINE
  8
0
 62
     0
 10
178.544
 20
64.0334
 30
0.0
 11
178.544
 21
69.8334
 31
0.0
  0
LINE
  8
0
 62
     0
 10
178.544
 20
69.8334
 30
0.0
 11
179.345
 21
69.8334
 31
0.0
  0
LINE
  8
0
 62
     0
 10
179.345
 20
69.8334
 30
0.0
 11
179.345
 21
72.9326
 31
0.0
  0
LINE
  8
0
 62
     0
 10
179.345
 20
72.9326
 30
0.0
 11
178.544
 21
72.9326
 31
0.0
  0
LINE
  8
0
 62
     0
 10
178.544
 20
72.9326
 30
0.0
 11
178.544
 21
73.9331
 31
0.0
  0
LINE
  8
0
 62
     0
 10
178.544
 20
73.9331
 30
0.0
 11
164.545
 21
73.9331
 31
0.0
  0
LINE
  8
0
 62
     0
 10
145.493
 20
73.9331
 30
0.0
 11
145.493
 21
72.9326
 31
0.0
  0
LINE
  8
0
 62
     0
 10
145.493
 20
72.9326
 30
0.0
 11
144.694
 21
72.9326
 31
0.0
  0
LINE
  8
0
 62
     0
 10
144.694
 20
72.9326
 30
0.0
 11
144.694
 21
69.8334
 31
0.0
  0
LINE
  8
0
 62
     0
 10
144.694
 20
69.8334
 30
0.0
 11
145.493
 21
69.8334
 31
0.0
  0
LINE
  8
0
 62
     0
 10
145.493
 20
69.8334
 30
0.0
 11
145.493
 21
64.0334
 31
0.0
  0
LINE
  8
0
 62
     0
 10
145.493
 20
64.0334
 30
0.0
 11
144.694
 21
64.0334
 31
0.0
  0
LINE
  8
0
 62
     0
 10
144.694
 20
64.0334
 30
0.0
 11
144.694
 21
60.9328
 31
0.0
  0
LINE
  8
0
 62
     0
 10
144.694
 20
60.9328
 30
0.0
 11
145.493
 21
60.9328
 31
0.0
  0
LINE
  8
0
 62
     0
 10
145.493
 20
60.9328
 30
0.0
 11
145.493
 21
59.9338
 31
0.0
  0
LINE
  8
0
 62
     0
 10
145.493
 20
59.9338
 30
0.0
 11
159.494
 21
59.9338
 31
0.0
  0
LINE
  8
0
 62
     0
 10
159.494
 20
59.9338
 30
0.0
 11
159.494
 21
60.9328
 31
0.0
  0
LINE
  8
0
 62
     0
 10
159.494
 20
60.9328
 30
0.0
 11
160.295
 21
60.9328
 31
0.0
  0
LINE
  8
0
 62
     0
 10
160.295
 20
60.9328
 30
0.0
 11
160.295
 21
64.0334
 31
0.0
  0
LINE
  8
0
 62
     0
 10
160.295
 20
64.0334
 30
0.0
 11
159.494
 21
64.0334
 31
0.0
  0
LINE
  8
0
 62
     0
 10
159.494
 20
64.0334
 30
0.0
 11
159.494
 21
69.8334
 31
0.0
  0
LINE
  8
0
 62
     0
 10
159.494
 20
69.8334
 30
0.0
 11
160.295
 21
69.8334
 31
0.0
  0
LINE
  8
0
 62
     0
 10
160.295
 20
69.8334
 30
0.0
 11
160.295
 21
72.9326
 31
0.0
  0
LINE
  8
0
 62
     0
 10
160.295
 20
72.9326
 30
0.0
 11
159.494
 21
72.9326
 31
0.0
  0
LINE
  8
0
 62
     0
 10
159.494
 20
72.9326
 30
0.0
 11
159.494
 21
73.9331
 31
0.0
  0
LINE
  8
0
 62
     0
 10
159.494
 20
73.9331
 30
0.0
 11
145.493
 21
73.9331
 31
0.0
  0
LINE
  8
0
 62
     0
 10
97.8683
 20
73.9331
 30
0.0
 11
97.8683
 21
72.9326
 31
0.0
  0
LINE
  8
0
 62
     0
 10
97.8683
 20
72.9326
 30
0.0
 11
97.0689
 21
72.9326
 31
0.0
  0
LINE
  8
0
 62
     0
 10
97.0689
 20
72.9326
 30
0.0
 11
97.0689
 21
69.8334
 31
0.0
  0
LINE
  8
0
 62
     0
 10
97.0689
 20
69.8334
 30
0.0
 11
97.8683
 21
69.8334
 31
0.0
  0
LINE
  8
0
 62
     0
 10
97.8683
 20
69.8334
 30
0.0
 11
97.8683
 21
64.0334
 31
0.0
  0
LINE
  8
0
 62
     0
 10
97.8683
 20
64.0334
 30
0.0
 11
97.0689
 21
64.0334
 31
0.0
  0
LINE
  8
0
 62
     0
 10
97.0689
 20
64.0334
 30
0.0
 11
97.0689
 21
60.9328
 31
0.0
  0
LINE
  8
0
 62
     0
 10
97.0689
 20
60.9328
 30
0.0
 11
97.8683
 21
60.9328
 31
0.0
  0
LINE
  8
0
 62
     0
 10
97.8683
 20
60.9328
 30
0.0
 11
97.8683
 21
59.9338
 31
0.0
  0
LINE
  8
0
 62
     0
 10
97.8683
 20
59.9338
 30
0.0
 11
111.869
 21
59.9338
 31
0.0
  0
LINE
  8
0
 62
     0
 10
111.869
 20
59.9338
 30
0.0
 11
111.869
 21
60.9328
 31
0.0
  0
LINE
  8
0
 62
     0
 10
111.869
 20
60.9328
 30
0.0
 11
112.668
 21
60.9328
 31
0.0
  0
LINE
  8
0
 62
     0
 10
112.668
 20
60.9328
 30
0.0
 11
112.668
 21
64.0334
 31
0.0
  0
LINE
  8
0
 62
     0
 10
112.668
 20
64.0334
 30
0.0
 11
111.869
 21
64.0334
 31
0.0
  0
LINE
  8
0
 62
     0
 10
111.869
 20
64.0334
 30
0.0
 11
111.869
 21
69.8334
 31
0.0
  0
LINE
  8
0
 62
     0
 10
111.869
 20
69.8334
 30
0.0
 11
112.668
 21
69.8334
 31
0.0
  0
LINE
  8
0
 62
     0
 10
112.668
 20
69.8334
 30
0.0
 11
112.668
 21
72.9326
 31
0.0
  0
LINE
  8
0
 62
     0
 10
112.668
 20
72.9326
 30
0.0
 11
111.869
 21
72.9326
 31
0.0
  0
LINE
  8
0
 62
     0
 10
111.869
 20
72.9326
 30
0.0
 11
111.869
 21
73.9331
 31
0.0
  0
LINE
  8
0
 62
     0
 10
111.869
 20
73.9331
 30
0.0
 11
97.8683
 21
73.9331
 31
0.0
  0
LINE
  8
0
 62
     0
 10
78.8197
 20
73.9331
 30
0.0
 11
78.8197
 21
72.9326
 31
0.0
  0
LINE
  8
0
 62
     0
 10
78.8197
 20
72.9326
 30
0.0
 11
78.0189
 21
72.9326
 31
0.0
  0
LINE
  8
0
 62
     0
 10
78.0189
 20
72.9326
 30
0.0
 11
78.0189
 21
69.8334
 31
0.0
  0
LINE
  8
0
 62
     0
 10
78.0189
 20
69.8334
 30
0.0
 11
78.8197
 21
69.8334
 31
0.0
  0
LINE
  8
0
 62
     0
 10
78.8197
 20
69.8334
 30
0.0
 11
78.8197
 21
64.0334
 31
0.0
  0
LINE
  8
0
 62
     0
 10
78.8197
 20
64.0334
 30
0.0
 11
78.0189
 21
64.0334
 31
0.0
  0
LINE
  8
0
 62
     0
 10
78.0189
 20
64.0334
 30
0.0
 11
78.0189
 21
60.9328
 31
0.0
  0
LINE
  8
0
 62
     0
 10
78.0189
 20
60.9328
 30
0.0
 11
78.8197
 21
60.9328
 31
0.0
  0
LINE
  8
0
 62
     0
 10
78.8197
 20
60.9328
 30
0.0
 11
78.8197
 21
59.9338
 31
0.0
  0
LINE
  8
0
 62
     0
 10
78.8197
 20
59.9338
 30
0.0
 11
92.819
 21
59.9338
 31
0.0
  0
LINE
  8
0
 62
     0
 10
92.819
 20
59.9338
 30
0.0
 11
92.819
 21
60.9328
 31
0.0
  0
LINE
  8
0
 62
     0
 10
92.819
 20
60.9328
 30
0.0
 11
93.6184
 21
60.9328
 31
0.0
  0
LINE
  8
0
 62
     0
 10
93.6184
 20
60.9328
 30
0.0
 11
93.6184
 21
64.0334
 31
0.0
  0
LINE
  8
0
 62
     0
 10
93.6184
 20
64.0334
 30
0.0
 11
92.819
 21
64.0334
 31
0.0
  0
LINE
  8
0
 62
     0
 10
92.819
 20
64.0334
 30
0.0
 11
92.819
 21
69.8334
 31
0.0
  0
LINE
  8
0
 62
     0
 10
92.819
 20
69.8334
 30
0.0
 11
93.6184
 21
69.8334
 31
0.0
  0
LINE
  8
0
 62
     0
 10
93.6184
 20
69.8334
 30
0.0
 11
93.6184
 21
72.9326
 31
0.0
  0
LINE
  8
0
 62
     0
 10
93.6184
 20
72.9326
 30
0.0
 11
92.819
 21
72.9326
 31
0.0
  0
LINE
  8
0
 62
     0
 10
92.819
 20
72.9326
 30
0.0
 11
92.819
 21
73.9331
 31
0.0
  0
LINE
  8
0
 62
     0
 10
92.819
 20
73.9331
 30
0.0
 11
78.8197
 21
73.9331
 31
0.0
  0
LINE
  8
0
 62
     0
 10
59.7697
 20
73.9331
 30
0.0
 11
59.7697
 21
72.9326
 31
0.0
  0
LINE
  8
0
 62
     0
 10
59.7697
 20
72.9326
 30
0.0
 11
58.9689
 21
72.9326
 31
0.0
  0
LINE
  8
0
 62
     0
 10
58.9689
 20
72.9326
 30
0.0
 11
58.9689
 21
69.8334
 31
0.0
  0
LINE
  8
0
 62
     0
 10
58.9689
 20
69.8334
 30
0.0
 11
59.7697
 21
69.8334
 31
0.0
  0
LINE
  8
0
 62
     0
 10
59.7697
 20
69.8334
 30
0.0
 11
59.7697
 21
64.0334
 31
0.0
  0
LINE
  8
0
 62
     0
 10
59.7697
 20
64.0334
 30
0.0
 11
58.9689
 21
64.0334
 31
0.0
  0
LINE
  8
0
 62
     0
 10
58.9689
 20
64.0334
 30
0.0
 11
58.9689
 21
60.9328
 31
0.0
  0
LINE
  8
0
 62
     0
 10
58.9689
 20
60.9328
 30
0.0
 11
59.7697
 21
60.9328
 31
0.0
  0
LINE
  8
0
 62
     0
 10
59.7697
 20
60.9328
 30
0.0
 11
59.7697
 21
59.9338
 31
0.0
  0
LINE
  8
0
 62
     0
 10
59.7697
 20
59.9338
 30
0.0
 11
73.769
 21
59.9338
 31
0.0
  0
LINE
  8
0
 62
     0
 10
73.769
 20
59.9338
 30
0.0
 11
73.769
 21
60.9328
 31
0.0
  0
LINE
  8
0
 62
     0
 10
73.769
 20
60.9328
 30
0.0
 11
74.5698
 21
60.9328
 31
0.0
  0
LINE
  8
0
 62
     0
 10
74.5698
 20
60.9328
 30
0.0
 11
74.5698
 21
64.0334
 31
0.0
  0
LINE
  8
0
 62
     0
 10
74.5698
 20
64.0334
 30
0.0
 11
73.769
 21
64.0334
 31
0.0
  0
LINE
  8
0
 62
     0
 10
73.769
 20
64.0334
 30
0.0
 11
73.769
 21
69.8334
 31
0.0
  0
LINE
  8
0
 62
     0
 10
73.769
 20
69.8334
 30
0.0
 11
74.5698
 21
69.8334
 31
0.0
  0
LINE
  8
0
 62
     0
 10
74.5698
 20
69.8334
 30
0.0
 11
74.5698
 21
72.9326
 31
0.0
  0
LINE
  8
0
 62
     0
 10
74.5698
 20
72.9326
 30
0.0
 11
73.769
 21
72.9326
 31
0.0
  0
LINE
  8
0
 62
     0
 10
73.769
 20
72.9326
 30
0.0
 11
73.769
 21
73.9331
 31
0.0
  0
LINE
  8
0
 62
     0
 10
73.769
 20
73.9331
 30
0.0
 11
59.7697
 21
73.9331
 31
0.0
  0
LINE
  8
0
 62
     0
 10
40.7197
 20
73.9331
 30
0.0
 11
40.7197
 21
72.9326
 31
0.0
  0
LINE
  8
0
 62
     0
 10
40.7197
 20
72.9326
 30
0.0
 11
39.9189
 21
72.9326
 31
0.0
  0
LINE
  8
0
 62
     0
 10
39.9189
 20
72.9326
 30
0.0
 11
39.9189
 21
69.8334
 31
0.0
  0
LINE
  8
0
 62
     0
 10
39.9189
 20
69.8334
 30
0.0
 11
40.7197
 21
69.8334
 31
0.0
  0
LINE
  8
0
 62
     0
 10
40.7197
 20
69.8334
 30
0.0
 11
40.7197
 21
64.0334
 31
0.0
  0
LINE
  8
0
 62
     0
 10
40.7197
 20
64.0334
 30
0.0
 11
39.9189
 21
64.0334
 31
0.0
  0
LINE
  8
0
 62
     0
 10
39.9189
 20
64.0334
 30
0.0
 11
39.9189
 21
60.9328
 31
0.0
  0
LINE
  8
0
 62
     0
 10
39.9189
 20
60.9328
 30
0.0
 11
40.7197
 21
60.9328
 31
0.0
  0
LINE
  8
0
 62
     0
 10
40.7197
 20
60.9328
 30
0.0
 11
40.7197
 21
59.9338
 31
0.0
  0
LINE
  8
0
 62
     0
 10
40.7197
 20
59.9338
 30
0.0
 11
54.719
 21
59.9338
 31
0.0
  0
LINE
  8
0
 62
     0
 10
54.719
 20
59.9338
 30
0.0
 11
54.719
 21
60.9328
 31
0.0
  0
LINE
  8
0
 62
     0
 10
54.719
 20
60.9328
 30
0.0
 11
55.5198
 21
60.9328
 31
0.0
  0
LINE
  8
0
 62
     0
 10
55.5198
 20
60.9328
 30
0.0
 11
55.5198
 21
64.0334
 31
0.0
  0
LINE
  8
0
 62
     0
 10
55.5198
 20
64.0334
 30
0.0
 11
54.719
 21
64.0334
 31
0.0
  0
LINE
  8
0
 62
     0
 10
54.719
 20
64.0334
 30
0.0
 11
54.719
 21
69.8334
 31
0.0
  0
LINE
  8
0
 62
     0
 10
54.719
 20
69.8334
 30
0.0
 11
55.5198
 21
69.8334
 31
0.0
  0
LINE
  8
0
 62
     0
 10
55.5198
 20
69.8334
 30
0.0
 11
55.5198
 21
72.9326
 31
0.0
  0
LINE
  8
0
 62
     0
 10
55.5198
 20
72.9326
 30
0.0
 11
54.719
 21
72.9326
 31
0.0
  0
LINE
  8
0
 62
     0
 10
54.719
 20
72.9326
 30
0.0
 11
54.719
 21
73.9331
 31
0.0
  0
LINE
  8
0
 62
     0
 10
54.719
 20
73.9331
 30
0.0
 11
40.7197
 21
73.9331
 31
0.0
  0
LINE
  8
0
 62
     0
 10
21.6697
 20
73.9331
 30
0.0
 11
21.6697
 21
72.9326
 31
0.0
  0
LINE
  8
0
 62
     0
 10
21.6697
 20
72.9326
 30
0.0
 11
20.869
 21
72.9326
 31
0.0
  0
LINE
  8
0
 62
     0
 10
20.869
 20
72.9326
 30
0.0
 11
20.869
 21
69.8334
 31
0.0
  0
LINE
  8
0
 62
     0
 10
20.869
 20
69.8334
 30
0.0
 11
21.6697
 21
69.8334
 31
0.0
  0
LINE
  8
0
 62
     0
 10
21.6697
 20
69.8334
 30
0.0
 11
21.6697
 21
64.0334
 31
0.0
  0
LINE
  8
0
 62
     0
 10
21.6697
 20
64.0334
 30
0.0
 11
20.869
 21
64.0334
 31
0.0
  0
LINE
  8
0
 62
     0
 10
20.869
 20
64.0334
 30
0.0
 11
20.869
 21
60.9328
 31
0.0
  0
LINE
  8
0
 62
     0
 10
20.869
 20
60.9328
 30
0.0
 11
21.6697
 21
60.9328
 31
0.0
  0
LINE
  8
0
 62
     0
 10
21.6697
 20
60.9328
 30
0.0
 11
21.6697
 21
59.9338
 31
0.0
  0
LINE
  8
0
 62
     0
 10
21.6697
 20
59.9338
 30
0.0
 11
35.669
 21
59.9338
 31
0.0
  0
LINE
  8
0
 62
     0
 10
35.669
 20
59.9338
 30
0.0
 11
35.669
 21
60.9328
 31
0.0
  0
LINE
  8
0
 62
     0
 10
35.669
 20
60.9328
 30
0.0
 11
36.4698
 21
60.9328
 31
0.0
  0
LINE
  8
0
 62
     0
 10
36.4698
 20
60.9328
 30
0.0
 11
36.4698
 21
64.0334
 31
0.0
  0
LINE
  8
0
 62
     0
 10
36.4698
 20
64.0334
 30
0.0
 11
35.669
 21
64.0334
 31
0.0
  0
LINE
  8
0
 62
     0
 10
35.669
 20
64.0334
 30
0.0
 11
35.669
 21
69.8334
 31
0.0
  0
LINE
  8
0
 62
     0
 10
35.669
 20
69.8334
 30
0.0
 11
36.4698
 21
69.8334
 31
0.0
  0
LINE
  8
0
 62
     0
 10
36.4698
 20
69.8334
 30
0.0
 11
36.4698
 21
72.9326
 31
0.0
  0
LINE
  8
0
 62
     0
 10
36.4698
 20
72.9326
 30
0.0
 11
35.669
 21
72.9326
 31
0.0
  0
LINE
  8
0
 62
     0
 10
35.669
 20
72.9326
 30
0.0
 11
35.669
 21
73.9331
 31
0.0
  0
LINE
  8
0
 62
     0
 10
35.669
 20
73.9331
 30
0.0
 11
21.6697
 21
73.9331
 31
0.0
  0
LINE
  8
0
 62
     0
 10
2.61965
 20
73.9331
 30
0.0
 11
2.61965
 21
72.9326
 31
0.0
  0
LINE
  8
0
 62
     0
 10
2.61965
 20
72.9326
 30
0.0
 11
1.81901
 21
72.9326
 31
0.0
  0
LINE
  8
0
 62
     0
 10
1.81901
 20
72.9326
 30
0.0
 11
1.81901
 21
69.8334
 31
0.0
  0
LINE
  8
0
 62
     0
 10
1.81901
 20
69.8334
 30
0.0
 11
2.61965
 21
69.8334
 31
0.0
  0
LINE
  8
0
 62
     0
 10
2.61965
 20
69.8334
 30
0.0
 11
2.61965
 21
64.0334
 31
0.0
  0
LINE
  8
0
 62
     0
 10
2.61965
 20
64.0334
 30
0.0
 11
1.81901
 21
64.0334
 31
0.0
  0
LINE
  8
0
 62
     0
 10
1.81901
 20
64.0334
 30
0.0
 11
1.81901
 21
60.9328
 31
0.0
  0
LINE
  8
0
 62
     0
 10
1.81901
 20
60.9328
 30
0.0
 11
2.61965
 21
60.9328
 31
0.0
  0
LINE
  8
0
 62
     0
 10
2.61965
 20
60.9328
 30
0.0
 11
2.61965
 21
59.9338
 31
0.0
  0
LINE
  8
0
 62
     0
 10
2.61965
 20
59.9338
 30
0.0
 11
16.6192
 21
59.9338
 31
0.0
  0
LINE
  8
0
 62
     0
 10
16.6192
 20
59.9338
 30
0.0
 11
16.6192
 21
60.9328
 31
0.0
  0
LINE
  8
0
 62
     0
 10
16.6192
 20
60.9328
 30
0.0
 11
17.4198
 21
60.9328
 31
0.0
  0
LINE
  8
0
 62
     0
 10
17.4198
 20
60.9328
 30
0.0
 11
17.4198
 21
64.0334
 31
0.0
  0
LINE
  8
0
 62
     0
 10
17.4198
 20
64.0334
 30
0.0
 11
16.6192
 21
64.0334
 31
0.0
  0
LINE
  8
0
 62
     0
 10
16.6192
 20
64.0334
 30
0.0
 11
16.6192
 21
69.8334
 31
0.0
  0
LINE
  8
0
 62
     0
 10
16.6192
 20
69.8334
 30
0.0
 11
17.4198
 21
69.8334
 31
0.0
  0
LINE
  8
0
 62
     0
 10
17.4198
 20
69.8334
 30
0.0
 11
17.4198
 21
72.9326
 31
0.0
  0
LINE
  8
0
 62
     0
 10
17.4198
 20
72.9326
 30
0.0
 11
16.6192
 21
72.9326
 31
0.0
  0
LINE
  8
0
 62
     0
 10
16.6192
 20
72.9326
 30
0.0
 11
16.6192
 21
73.9331
 31
0.0
  0
LINE
  8
0
 62
     0
 10
16.6192
 20
73.9331
 30
0.0
 11
2.61965
 21
73.9331
 31
0.0
  0
ENDSEC
  0
EOF
